<svg xmlns="http://www.w3.org/2000/svg" xmlns:xlink="http://www.w3.org/1999/xlink" width="445" height="445" xmlns:v="https://vecta.io/nano"><style><![CDATA[.Ao{opacity:.5}.Ap{enable-background:new}.Aq{fill:#eea886}.Ar{fill:#4388b9}.As{fill:#323657}]]></style><g stroke="#80839d" stroke-miterlimit="10"><path d="M321.7 243.9H64.6c3.9 0 3.6-.3 3.6-.6h0c0-.3.3-.6.7-.6H326c.4 0 .7.3.7.6h0c-.1.3-.4.6-5 .6z" fill="#80839d"/><path d="M227.7 344.2H185c-10.1 0-18.4-10-18.4-22.3V159.2c0-12.3 8.3-22.3 18.4-22.3h75.6m159.5 169.2h-81.9c-6.4 0-11.7-6.6-11.7-14.7V183.9c0-8.1 5.3-14.7 11.7-14.7h81.9" fill="none" stroke-width="2"/></g><g fill="#c7da2c"><circle cx="401.2" cy="168.3" r="34.4" class="Ao"/><circle cx="401.2" cy="169.2" r="23.6"/></g><defs><circle id="A" cx="401.2" cy="169.2" r="23.6"/><path id="B" d="M216.4 295.7c.6.4 1.4.7 2.3.7 1.3 0 2.1-.7 2.1-1.7 0-.9-.5-1.5-1.9-2-1.6-.6-2.6-1.4-2.6-2.8 0-1.6 1.3-2.7 3.2-2.7 1 0 1.8.2 2.2.5l-.4 1.1c-.3-.2-1-.5-1.9-.5-1.4 0-1.9.8-1.9 1.5 0 .9.6 1.4 2 1.9 1.7.7 2.6 1.5 2.6 2.9 0 1.5-1.1 2.9-3.5 2.9-1 0-2-.3-2.6-.6l.4-1.2z"/><path id="C" d="M232.1 292.4l-.1-2.4h1.2l.1 1.2c.5-.9 1.4-1.4 2.6-1.4 1.7 0 3.1 1.5 3.1 3.7 0 2.6-1.6 3.9-3.3 3.9-1 0-1.8-.4-2.2-1.1h0v3.9h-1.3v-7.8zm1.3 2c0 .2 0 .4.1.5.2.9 1 1.5 2 1.5 1.4 0 2.2-1.1 2.2-2.8 0-1.4-.8-2.7-2.1-2.7-.9 0-1.7.6-2 1.6 0 .2-.1.4-.1.5v1.4z"/><path id="D" d="M257.2 292.3l-.1-2.2h1.1v1.4h.1c.3-1 1.1-1.6 2-1.6h.4v1.2h-.4c-.9 0-1.6.7-1.8 1.7 0 .2-.1.4-.1.6v3.8h-1.3v-4.9z"/><path id="E" d="M237.5 201l-.1-.9c-.4.6-1.2 1.1-2.2 1.1-1.5 0-2.2-1-2.2-2.1 0-1.7 1.5-2.7 4.3-2.7v-.1c0-.6-.2-1.7-1.6-1.7-.7 0-1.4.2-1.9.5l-.3-.9c.6-.4 1.5-.6 2.4-.6 2.2 0 2.7 1.5 2.7 2.9v2.7c0 .6 0 1.2.1 1.7h-1.2zm-.2-3.7c-1.4 0-3.1.2-3.1 1.6 0 .8.6 1.2 1.2 1.2.9 0 1.5-.6 1.7-1.2 0-.1.1-.3.1-.4v-1.2z"/></defs><clipPath id="F"><use xlink:href="#A"/></clipPath><g clip-path="url(#F)"><path d="M386.8 189c-2-3.4-.5-8.2 3.2-9.2v-13.9c0-5.8 4.8-10.6 10.6-10.6h1.6c2.9 0 5.5 1.2 7.5 3.1 2 2 3.1 4.7 3.1 7.5v13.9c3.7 1.1 5.2 5.8 3.2 9.2h-29.2z" fill="#805333"/><g fill="#603e26"><path d="M412.1 183c-.4 0-.8-.3-.8-.8v-5.7c0-.4.3-.8.8-.8s.8.3.8.8v5.7c.1.5-.3.8-.8.8zm-21.2 0c-.4 0-.8-.3-.8-.8v-5.7c0-.4.3-.8.8-.8.4 0 .8.3.8.8v5.7c0 .5-.4.8-.8.8z"/></g><g fill="#a5a5a4"><path d="M413 173.2c0 .4-.3.8-.8.8s-.8-.3-.8-.8l.1-13.1c.1-.2.4 1.6.7 1.6.2 0 .4.1.6.3.3 1.5.2 1.4.2 11.2zm-21.3 0c0 .4-.3.8-.8.8-.4 0-.8-.3-.8-.8 0-9.6-.1-9.8.2-11.2.1-.2.4-.3.6-.3.3 0 .5-1.9.7-1.6.1.3.1.6.1 13.1z"/></g><path d="M413 164.2v1.6c-.3-1.3-.8-2.5-1.5-3.7-1.5-2.4-4.5-5.3-10-5.3s-8.4 2.9-10 5.3c-.7 1.2-1.2 2.4-1.5 3.7v-1.6c0-6.4 5.1-10.6 11.5-10.6s11.5 4.2 11.5 10.6z" fill="#7f8284"/><path d="M420.4 198.6c0 .2-.1.4-.2.5s-.3.2-.5.2h-36.2c-.2 0-.4-.1-.5-.2s-.2-.3-.2-.5v-3.3c.2-5 2.5-5.7 2.5-5.7l10.5-4.1s0 4.1 5.7 4.1 5.7-4.1 5.7-4.1l10.5 4.1s2.3.7 2.5 5.7v3.3h.2z" fill="#285680"/><path d="M417.9 198.5c0 .5-.3.8-.6.8h-31.4c-.3 0-.6-.4-.6-.8V195c.2-5.3 2.2-6.1 2.2-6.1 3.6-1.7 1.8-1 8.4-3.5 0 0 0 4.1 5.7 4.1s5.7-4.1 5.7-4.1l8.4 3.5s2 .7 2.2 6.1v3.5z" fill="#4482c3"/><g fill="#547580"><path d="M390 168.3h23c1 0 1.6.7 1.6 1.6v4.9c0 1-.7 1.6-1.6 1.6h-23c-1 0-1.6-.7-1.6-1.6V170c0-1 .8-1.7 1.6-1.7zm9.9 9h3.3c.4 0 .8.3.8.8v1.6c0 .4-.3.8-.8.8h-3.3c-.4 0-.8-.3-.8-.8v-1.6c-.1-.4.3-.8.8-.8z"/></g><path d="M407.2 179.9v5.5s0 4.1-5.7 4.1-5.7-4.1-5.7-4.1v-5.5c3.5 6.3 7.9 6.3 11.4 0z" fill="#f9c795"/><path d="M409.7 168.6c0 5.2.1 5.3-.2 6.3-.5 1.8-1.3 3.5-2.2 5.1-4.9 8.7-10.6 4.4-13.7-5.1-.3-1-.2-1.1-.2-6.3 0-.3.1-.5.3-.7.8-.6 5.1-3.1 7.3-4.9a.91.91 0 0 1 1 0c2.2 1.8 6.5 4.2 7.3 4.9.3.1.4.4.4.7h0z" fill="#fdd7ad"/><path d="M400.6 180.6h-8.2a3.33 3.33 0 0 1-3.3-3.3v-.8c0-.4.3-.8.8-.8s.8.3.8.8v.8c0 1 .7 1.6 1.6 1.6h8.2c.4 0 .8.3.8.8.2.6-.1.9-.7.9z" fill="#a5a5a4"/></g><g fill="#7accc8"><circle cx="401.2" cy="305.3" r="34.4" class="Ao Ap"/><circle cx="401.2" cy="306.3" r="23.6"/></g><defs><circle id="G" cx="401.2" cy="306.3" r="23.6"/></defs><clipPath id="H"><use xlink:href="#G"/></clipPath><g clip-path="url(#H)"><path d="M395 320.2c.5 3 3.1 5.2 6.2 5.2s5.7-2.2 6.2-5.3c-1.1-.7-1.1-1.8-1.1-1.8V315h-10.2v3.3c0 .1 0 1.1-1.1 1.9z" fill="#d6b24e"/><path d="M409.2 302.3v.5c-.1-4.5-3.7-8.6-8.1-8.6s-8 4.1-8.1 8.6v-.5c-.8 0-1.6 2-1.6 3.8s.7 3.3 1.6 3.3v.1c0 2.2 1.9 5 3.9 7.3 2.2 2.5 6.2 2.5 8.3 0 2-2.3 3.9-5.1 3.9-7.3v-.1c.8 0 1.6-1.5 1.6-3.3.1-1.8-.6-3.8-1.5-3.8z" fill="#ffd25a"/><path d="M402.6 335.5h.8l4.1-12.3-4.4-2.1-1.6 1.7.1 10.8 1 1.9z" fill="#e6e7e8"/><path d="M422.6 335.5c-.1-4.4-.5-8.5-2.3-10.7-2.1-2.8-10.8-5.1-10.8-5.1l-2 2.2-.2 1.2-1.1 4.5-1.2 5.2-.8 2.8h18.4z" class="Ar"/><path d="M406.3 317.9l-5.1 2.7 4 2.5 1.1-5.2z" fill="#dad7dc"/><path d="M399.8 335.5l.8-2 .1-10.8-1.6-1.7-4.4 2.1 4.1 12.3h.8v.1z" fill="#e6e7e8"/><path d="M398.2 335.5l-.8-2.8-1.2-5.3-1-4.4-.2-1.2-2-2.2s-8.7 2.3-10.8 5.1c-1.8 2.3-2.1 6.4-2.3 10.7l18.3.1z" class="Ar"/><path d="M396.1 317.9l5.1 2.7-4 2.5-1.1-5.2z" fill="#dad7dc"/><path d="M399.4 335.5h3.7l-1-11.8 1-1.8-1.9-1.2-1.9 1.2 1 1.8-.9 11.8z" fill="#f37735"/><g fill="#509fd7"><path d="M392.1 328.2l3.7 7.2h3.9L396 318l-3.1 1.6-1.2 5.8 2.7 1.5-2.3 1.3zm14.4 7.3l3.7-7.2-2.3-1.4 2.7-1.5-1.2-5.8-3.1-1.6-3.8 17.4h4v.1z"/></g><path d="M391.7 304.8c.3 1.2 1 2 1.1 4h.5c-.1-.8-.3-3 .3-6.2 0 0 10.9.8 13.2-4.4 0 0 1.7-.2 1.9 2.8s.1 3.8.7 4.2l-.3 3.5h.3c.2-1 .7-3.5 1.3-3.8 0 0 1.7-8.2-1.9-9.8 0 0-1.3-5.4-9.6-3.4s-8 7.8-8 7.8.2 4 .5 5.3z" fill="#344e5c"/><g fill="#ececec"><path d="M401.2 291.1c-7.5 0-13.7 6.2-13.7 13.7v2.3c0 .4.3.8.8.8h3.6v-1.6h-2.8v-1.5a12.08 12.08 0 1 1 24.2 0v1.5h-3.5v1.6h4.4c.4 0 .8-.3.8-.8v-2.2c-.1-7.7-6.3-13.8-13.8-13.8z"/><path d="M399 314h-4.1a3.44 3.44 0 0 1-3.4-3.4V308a.47.47 0 1 1 1 0v2.7c0 1.3 1.1 2.3 2.3 2.3h4.1a.47.47 0 0 1 .5.5c.2.3 0 .5-.4.5z"/></g><path d="M393 303.8a.47.47 0 0 0-.5.5v5.6a.47.47 0 1 0 1 0v-5.6c.1-.3-.2-.5-.5-.5z" fill="#cd5148"/><g fill="#db584d"><path d="M392.5 304.2a3.01 3.01 0 0 0-3 3 3.01 3.01 0 0 0 3 3h.6v-5.9h-.6zm17.5 0h-.6v5.9h.6a3.01 3.01 0 0 0 3-3c-.1-1.6-1.4-2.9-3-2.9z"/></g><path d="M409.4 303.8a.47.47 0 0 0-.5.5v5.6a.47.47 0 1 0 1 0v-5.6a.47.47 0 0 0-.5-.5z" fill="#cd5148"/><circle cx="400.4" cy="313.5" r="1.4" class="Ar"/></g><path d="M32.5 376s-2.6 4.9-4.3 6.7c-1.7 1.9-8.1 5.3-8.1 11.1 0 6.2 10.9 4.5 15.2 4.3s4.6-3.5 6.4-7.1 3.6-2.9 4-5.7-1.7-9.2-1.7-9.2H32.5z" fill="#202338"/><path d="M43.6 374l.4 2.7c-.1.1-12.2 2.2-12 0 0-1.7 1.1-3.8 1.1-3.8l10.5 1.1z" fill="#81807e"/><path d="M80.8 100L63.3 84.3l10-8.4 15.8 16.5z" fill="#51578c"/><path d="M80.4 98.4L65.2 84.8l8.7-7.3 13.6 14.3z" fill="#3e3b42"/><g fill="#e3a080"><path d="M90.8 100.3s-2.7-.6-1.8-3.6-.4-3.6-.4-3.6l-9.2 8.4s4.5 4.1 5.8 4.3c1.2 0 7-3.9 5.6-5.5z"/><path d="M79.3 101.4l-6.1-3.9-4-4.1c-1-1.3 3.4-1.5 4.5 0 1.2 1.3 2.4 1.7 3.3 1.9.9.4 5.3 1.2 6.3 2.6.8 1.3-4 3.5-4 3.5zm7.5-10.2s-.7.9-1.2-.1-.5-3.2.9-2.7c1.3.5.3 2.8.3 2.8zm-1.7-2.9s-.2 1.6-1.1.9-1.7-3.5-.2-3.4c1.4.1 1.3 2.5 1.3 2.5zm-2.4-2.4s0 1.9-1 1.5c-.7-.5-1.8-4-.4-3.9 1.5-.1 1.4 2.4 1.4 2.4z"/></g><path d="M82.7 105.2l8.5-7.7 34.4 28.6c5.2 3.5-6.1 14-10.3 12.9-11.7-3.2-31.6-3.9-42.1-9.6-15.9-8.8-5.7-24.2-.6-22.6s23.7 11.4 23.7 11.4l-13.6-13z" class="As"/><path d="M97.4 375s5.2 5.8 10.6 7.2c5.3 1.2 9.1 2.8 9.1 6.2s-15.4 5.6-21.5 2.2c-9.1-5.1-10.1-3.5-11.1-6.1s1.2-9.4 1.1-10.1c0-1.1 11.8.6 11.8.6z" fill="#202338"/><path d="M96.8 372.2l.6 2.8c-.1 0-12 1.5-11.7-.7.2-1.8.7-3.8.7-3.8l10.4 1.7z" fill="#81807e"/><path d="M86 207.1l6.6 56.7c2.7 16.9 3.5 30.9 4.3 39.6 1 11.1 1.1 65.2 1.7 68.3s-14.6.9-14.6.9-7.4-70.8-10.2-82.4c-2.6-10.9-12.2-57.9-14.5-55-2.3 3-5.2 54.8-7.1 63.5-1.7 8.6-7.1 76-7.1 76s-12 2.4-15.2-.4c0 0-1.5-58.1-.4-74.3.4-6.2-7.2-73.8 2.6-101 5.6-14.2 53.9 8.1 53.9 8.1z" fill="#292c47"/><path d="M11.3 213s7.3 2.2 10.5 1.7c3-.6 1.5-38.3 1.6-46.1.1-6.3 3.5-23.1 3.5-23.1h0c.4 1.2 5 18.7 5.2 27.1.1 8.6-1.1 41.9-1.1 41.9l11.7 5.5 40.4 1.2 5.8.1-1.2-26.5c-.2-4.3-1.1-12-.9-19.5 0 0-.1-7.9.6-11.3.1-15 1-29.9 1-29.9.5-6.8.9-13.1 1.1-19.1-1.6-.9-3.6-1.8-5.2-2.7l-16-7.4c-2.6-1.2-5.1-2.1-5.1-2.1l-18.7-1.6c-.5 0-2.7.7-5.5 1.8-6.2 2.3-18.1 7.2-20.1 8.5-2.8 1.9-8.6 49.4-9 52.8-.4 6.2 1.4 48.7 1.4 48.7z" fill="#e8734d"/><path d="M44.5 101.4c1.3 11.8 14.3 11.8 14.3 11.8s5.3-4.7 5.2-8.3v-.2c-.1-.6-.9-1.5-.9-2.8v-1c0-.9 0-1.8.1-2.4v-.9l-4.7-4.9c-4.6-4.6-11.1-10.6-11.1-8.1v.5c1.2 5.3-2.9 16.3-2.9 16.3z" class="Aq"/><path d="M53.4 108.4l5.5 4.9s-6.3-.4-7.4-1.5l1.9-3.4z" fill="#a09ea6"/><path d="M87.9 215s-25.5 2.2-47.9 0v7.3s33.6 4.9 49-1.5l-1.1-5.8z" fill="#292c47"/><path d="M66 104.1s4.1 9.7 7.3 31.6l5 36.8c1.2 11.3 4.1 23 5.1 31.7l3.9 35.5 6.9-4.4c1-1 2.4-2.1 1.9-3.4-1.9-6.2-5.6-26.7-7.8-44.6h0c-.1-.9-.2-1.7-.2-2.6v-.1c-.4-3.5-.7-7.1-1-10.1-.2-2.4 0-4.7.4-7.1 1-16 1.5-32.9 1.5-32.9.5-6.9.9-13.4 1-19.5-1.7-.7-3.6-2.2-5.5-3l-10.9-5.1c-1.8-.9-3.8-1.2-5.2-1.8l-2.4-1zM23.9 169c-.5 7.3 2.6 47.5-.5 48.1s-14.3-1.9-14.3-1.9l-1-48c.4-3.3 5.6-53 8.4-55.1 1.6-1.1 13.5-5.3 19.3-7.7 1.1-.4 4.5-1.8 5.5-2.2 1.2 1.3 12 26.7 13.1 46.6.4 6.1-1.1 18.7-2.2 29.2l-3.3 29.1-3.2 32.8-18.1-8.1c-2.9-1.5-7.1-7.5-6-10.6 4.3-11.8 9.5-31.9 9.5-42.2 0 0-2.1-25.3-3.6-30.9 0-.1-2.9 11.7-3.6 20.9z" class="As"/><path d="M20.5 216.6l2.1 8.1c1.2 4 2.3 5.3 1.8 7.7-.4 1.7-2.4 3-2.9 2.4s-.6-7.4-3.4-7.4.7 8.4-1 7.8-8-4.3-7.7-7.7c.5-3.4 3-5.8 3-10.9-.1-4.6 1.3-6.6 1.3-6.6l6.8 6.6z" class="Aq"/><path d="M24.4 189.3l-.2 32s-6.4-.2-15.2-3.5l-.6-45.1 16 16.6z" class="As"/><path d="M64.8 109.2s.5 6.7-5.2 6.8c-5.6.1-10.1-5.2-10.1-5.2l9.4 2.4 5.7-4.9.2.9z" fill="#cac7d1"/><path d="M45.2 99.2s5.3 6.9 8.1 9.1l-4.6 7.7-7.9-13.6 4.4-3.2z" fill="#eae6f2"/><path d="M63.7 109.6l-4.9 3.5s4.3-7.8 4.4-11.2l.5 7.7z" fill="#a09ea6"/><path d="M63.1 101.9l3.2 2.2 3.4 10.3-6-4.8z" fill="#eae6f2"/><path d="M78.5 67.5s3.4 8.3 1.2 9.2c-1.8.9 1.1 8.9 1.5 10.2s-3.4 1.8-4.3 2.6-4.1 10.5-7.1 10.5-16-6.1-19.3-10.3c-3.3-4.3-4.5-21.8-1.2-28.8 3.1-6.9 23.2-7.9 29.2 6.6z" class="Aq"/><path d="M79.1 69.3s5.2-8-1.9-15.2C70 47 54.3 56.6 52.6 56.8S41 59.2 44.4 74.1l3.2 13.6s3.9-7.1 5.7-8.1c2.8-1.7 8.6-.6 8.6-.6s-1.9-7.7 2.4-8.3c4.6-.4 10.7-3.4 14.8-1.4z" fill="#754836"/><path d="M57.9 74.4c-.2-1.1-1.1-5.5-5-3.4-4 2.2 1.2 10.9 1.8 11.2.6.1 5.5 1.1 3.2-7.8z" class="Aq"/><path d="M50.9 90.4c.1.2 3 7.4 12.2 11.1v-.5c0-.9 0-1.8.1-2.4v-.5c.1-.1-9.7-4.7-12.3-7.7z" fill="#a77860"/><circle cx="241.8" cy="243.1" r="35.9" fill="#a6b0d2" class="Ao Ap"/><circle cx="241.8" cy="244.1" r="24.6" fill="#7f95d6"/><defs><circle id="I" cx="241.8" cy="244.1" r="24.6"/></defs><clipPath id="J"><use xlink:href="#I"/></clipPath><g clip-path="url(#J)"><path d="M241.9 227.6c7 0 12.6 5.6 12.6 12.6V261h-25.2v-20.8c0-7 5.7-12.6 12.6-12.6z" fill="#9b7759"/><path d="M232.3 258.9h19.4c4.1 0 7.4 3.3 7.4 7.4v4.4h-34.2v-4.4c0-4 3.3-7.4 7.4-7.4z" fill="#f6cc4f"/><g fill="#ef8746"><path d="M238.3 258.9v11.8l-3.8-6 1.4-1.4-3.8-1.4 6.2-3zm9.6 4.5l1.5 1.4-3.8 6V259l6 3-3.7 1.4z"/></g><path d="M238.3 263.5c2.2 1.8 5.3 1.8 7.4 0v7.3h-7.4v-7.3z" fill="#e1ecfd"/><path d="M233.1 239.6v7.4h-3.8c-.8 0-1.4-.7-1.4-1.4v-4.4c0-.8.7-1.4 1.4-1.4h3.8v-.2z" fill="#8e95a3"/><path d="M241.9 229.9c-5.4 0-10 4.2-10.4 9.6h-2.2c.4-7 6.4-12.3 13.4-11.8a12.38 12.38 0 0 1 11.8 11.8h-2.2c-.3-5.4-4.8-9.6-10.4-9.6h0z" fill="#e0e0e2"/><path d="M246.5 243.2v.8c0 .4-.3.8-.8.8-.4 0-.8-.3-.8-.8v-.8c0-.4.3-.8.8-.8.4 0 .8.5.8.8z" fill="#78b9eb"/><path d="M245.7 252.2v11.3c-2.2 1.8-5.3 1.8-7.4 0v-11.3h7.4z" fill="#f09898"/><path d="M233.1,237.3h17.8l0,0v9.6c0,5-4,9-9,9l0,0c-5,0-9-4-9-9v-9.6H233.1z" fill="#f3b1b2"/><path d="M252.3 239.6h-5.1c-1.3 0-2.7-.8-3.3-2-1.7 1.8-4 2.7-6.4 2.7h-6v-.8c.4-5.8 5.4-10.1 11.2-9.6 5.2.5 9.3 4.6 9.6 9.7z" fill="#9b7759"/><path d="M252.2 252.2h-8v-1.4h6.9l1.3-4.6 1.4.4-1.6 5.6z" fill="#e0e0e2"/><path d="M256.1 241v4.4c0 .8-.7 1.4-1.4 1.4h-3.8v-7.4h3.8c.7.2 1.4.8 1.4 1.6z" fill="#8e95a3"/><path d="M243.5 250h2.2c.8 0 1.4.7 1.4 1.4h0c0 .8-.7 1.4-1.4 1.4h-2.2c-.8 0-1.4-.7-1.4-1.4h0c-.2-.8.5-1.4 1.4-1.4z" fill="#3e3d42"/></g><circle cx="241.8" cy="136" r="35.9" fill="#f2eb6d" class="Ao Ap"/><circle cx="241.8" cy="137" r="24.6" fill="#efe456"/><defs><circle id="K" cx="241.8" cy="137" r="24.6"/></defs><clipPath id="L"><use xlink:href="#K"/></clipPath><g clip-path="url(#L)"><path d="M250.1 149.4h-16.6c-4.1 0-6.4-4.9-3.8-8l.1-.2c1.2-1.4 1.8-3.2 1.8-5V133a10.18 10.18 0 1 1 20.4 0v3.3c0 1.9.7 3.7 1.9 5 2.6 3.2.3 8.1-3.8 8.1z" fill="#c59191"/><path d="M258.9 157.6v11h-34v-10.8c0-2.4 1.4-4.6 3.8-5.6l5.5-2.4 1.9-.8c1.4-.7 2.3-2 2.3-3.5v-.7h7.2v.7c0 1.5.9 2.9 2.3 3.5l7.4 3.2c2.1.9 3.6 3.1 3.6 5.4h0z" fill="#fff"/><path d="M234.1 152.3c1.9.6 4.6 1.1 8 1.1 3.1 0 5.8-.7 7.5-1.2l.9-2.1-2.7-1.2c-1.4-.6-2.3-2-2.3-3.5v-.7h-7.2v.7c0 1.5-.9 2.9-2.3 3.5l-2.2 1 .3 2.4z" fill="#ffcebf"/><g fill="#8795de"><path d="M255.2 152.1l-5.5-2.4v18.9h9.2v-11c0-2.3-1.5-4.5-3.7-5.5h0zm-21.1-2.4v18.9h-9.2v-11c0-2.4 1.4-4.6 3.8-5.6l5.4-2.3z"/></g><path d="M244.4 148.6c.8 0 1.7-.2 2.3-.4-.8-.7-1.2-1.8-1.2-2.8v-.7h-7.2v.7c0 .6-.1 1.1-.3 1.5 1.1 1 2.5 1.7 4.2 1.7h2.2z" fill="#ffb09e"/><path d="M249 133.8v6c0 3.3-2.8 6.1-6.1 6.1h-2.2c-3.3 0-6.1-2.8-6.1-6.1v-6c0-2.2 1.8-4 4-4h6.4c2.2 0 4 1.8 4 4h0z" fill="#ffcebf"/><path d="M249 136.9h0c-.2.8-.8 2.2-2.2 3.3-.7.6-1.4.9-2.2 1.1a.63.63 0 0 0-.4.9c.1.3.3.6.7.6h.2c1-.2 1.9-.7 2.7-1.3.6-.4 1-.9 1.3-1.3v-3.3h-.1z" fill="#7a6d79"/><path d="M243.9 143.2h-1.7c-.8 0-1.3-.6-1.3-1.3s.6-1.3 1.3-1.3h1.7c.8 0 1.3.6 1.3 1.3s-.6 1.3-1.3 1.3z" fill="#685e68"/><path d="M243.3 128.3c.1-2 2-3.2 3.8-3.9 3 1.8 5 5 5 8.7v.7c-.1 0-.3.1-.4.1-1 .1-1.8.1-2.4 0-3.8-.5-6.3-3.3-6-5.6z" fill="#b98080"/><path d="M241.8 123c2.3 0 4.4.8 6.1 2-.9 1.4-2.8 4.4-6.4 6.5-2.7 1.5-5.3 2.1-6.9 2.3h-2.9v-.8c0-5.5 4.6-10 10.1-10z" fill="#c59191"/></g><circle cx="241.8" cy="339.7" r="35.9" fill="#efb381" class="Ao Ap"/><circle cx="241.8" cy="340.7" r="24.6" fill="#e59a63"/><defs><circle id="M" cx="241.8" cy="340.7" r="24.6"/></defs><clipPath id="N"><use xlink:href="#M"/></clipPath><g clip-path="url(#N)"><path d="M257.6 360.8v6.8h-4v-5.4c0-2 .7-3.9 2-5.3h0c1.3.9 1.9 2.4 2 3.9z" fill="#e75163"/><path d="M238.1 350.5c-.2 0-.2 0 0 0h0l-.1 5.2c2.3 1.7 5.4 1.7 7.9 0h0v-5.2h-7.8z" fill="#efc597"/><path d="M230 362.2v5.4h-4v-6.8c.1-1.5.9-3 2-4.1 1.2 1.6 2 3.5 2 5.5h0z" fill="#e75163"/><path d="M251 339l-2.4 9.2c-2.5 3.2-6.9 4.2-10.5 2.4h-.1c-1.1-.6-2.1-1.3-2.9-2.3h0l-2.4-9.2c.1 0 .2 0 .3-.1h0c0 .2.2.3.3.4 0 0 2.2.6 2.2.3l.3-3.8c0-.2.2-.3.3-.3h0l.7.1c2.9.3 5.8-1 7.4-3.3 2.1 1.4 3.5 3.5 4.2 6l.4 1.7 1.4-.7c.1-.1.2-.3.2-.6h0c.4.1.5.1.6.2h0z" fill="#ffd8b7"/><path d="M254.3 355.8l-7.7-2.7h-.8v14.4h8v-5.4c0-2 .7-3.9 2-5.3h0c-.5-.4-1-.7-1.5-1z" fill="#fb6771"/><path d="M245.7 367.6h0-7.9v-11.8c2.3 1.7 5.4 1.7 7.9 0h0v11.8z" fill="#d4e1f4"/><path d="M229.3 355.8c-.6.2-1 .6-1.4 1 1.3 1.4 2 3.4 2 5.3v5.4h8v-14.7l-8.6 3z" fill="#fb6771"/><path d="M240.2 350.6c-2.2-1.3-3.7-3.8-3.5-6.4v-3.4c0-.8.2-1.7.6-2.3.3-.8 1-1.3 1.7-1.8.1-.1.3-.2.4-.3.2-.1.4-.4.3-.8 0-.1 0-.2-.1-.3h0l-5.3-.2c-.2.6-.4 3-.6 4.5v3.4l1.3 5.3c.8 1 1.8 1.8 2.9 2.3h.1c1.2.6 2.4.9 3.8.9h0c-.5-.3-1.1-.5-1.6-.9h0z" fill="#e8bfa0"/><path d="M241.8 326.3c5 0 9.1 4.1 9.1 9.1v.7l-.2 2.9v.1c0 .2-.1.3-.2.6l-1.4.7-.4-1.7c-.6-2.4-2.1-4.5-4.2-6-1.7 2.4-4.5 3.7-7.4 3.3l-.7-.1c-.2 0-.3.1-.3.3h0l-.3 3.8c0 .1-2.2-.3-2.2-.3-.2-.1-.3-.2-.3-.4v-.3l-.2-2.9v-.7c-.4-5 3.7-9.1 8.7-9.1h0z" fill="#6d7486"/><g fill="#d4e1f4"><path d="M248.7 353.7h-4v-1.1h4c.7 0 1.2-.6 1.2-1.2v-3.1h1.1v3.1c.1 1.3-1 2.3-2.3 2.3zm5.4-12.7H253v-5.9c0-6.2-5-11.2-11.2-11.2s-11.2 5-11.2 11.2v5.9h-1.1v-5.9c0-6.8 5.5-12.3 12.3-12.3s12.3 5.5 12.3 12.3v5.9z"/></g><g fill="#f4f8fc"><path d="M232.6 359.2c-.3 0-.6-.2-.6-.6v-.6c0-.3.2-.6.6-.6.3 0 .6.2.6.6v.6c0 .3-.2.6-.6.6zm0 6.1c-.3 0-.6-.2-.6-.6v-4.3c0-.3.2-.6.6-.6.3 0 .6.2.6.6v4.3c0 .2-.2.6-.6.6z"/></g><path d="M250.6 349.2h0l2.5-10.2h.2c.1 0 .1 0 .2.1 1.3.4 2.1 1.9 1.8 3.2l-1.3 5c-.3 1.4-1.9 2.3-3.3 1.9h-.1z" fill="#5fa8ed"/><g fill="#4689d3"><path d="M248.6 348.1l2.5-9.6 2 .6-2.7 10.2-2-.6.2-.6zm-16-9.1l2.4 9.2.1.6-2 .6-2.7-10.2 2-.6.2.4z"/></g><path d="M230.5 339l2.7 10.2h-.2c-1.4.3-2.9-.4-3.3-1.9l-1.3-5c-.3-1.3.4-2.8 1.8-3.2.1 0 .1 0 .2-.1h.1z" fill="#5fa8ed"/><path d="M245.1 352.2v2c0 .1-.1.2-.2.2h0-3.5c-.1 0-.2-.1-.2-.2h0v-2c0-.1.1-.2.2-.2h3.5c.1 0 .2.1.2.2z" fill="#6d7486"/></g><use xlink:href="#B"/><path d="M229.9 295.3c0 .7 0 1.4.1 2h-1.2l-.1-1.2c-.3.6-1.1 1.3-2.4 1.3-1.1 0-2.5-.6-2.5-3.2V290h1.3v4c0 1.4.4 2.3 1.6 2.3.9 0 1.5-.6 1.7-1.2.1-.2.1-.4.1-.7V290h1.3v5.3z"/><use xlink:href="#C"/><use xlink:href="#C" x="8.5"/><path d="M255.6 293.6c0 2.7-1.8 3.8-3.6 3.8-1.9 0-3.5-1.4-3.5-3.7 0-2.4 1.6-3.8 3.6-3.8 2.1 0 3.5 1.5 3.5 3.7zm-5.8.1c0 1.6.9 2.8 2.2 2.8s2.2-1.2 2.2-2.8c0-1.2-.6-2.8-2.2-2.8s-2.2 1.4-2.2 2.8z"/><use xlink:href="#D"/><path d="M264 288v2.1h1.9v1H264v3.9c0 .9.3 1.4 1 1.4.3 0 .6 0 .8-.1l.1 1a3.73 3.73 0 0 1-1.2.2c-.6 0-1.1-.2-1.4-.5-.4-.4-.5-1-.5-1.9v-3.9h-1.1v-1h1.1v-1.7l1.2-.5z"/><use xlink:href="#B" x="9.6" y="-96.3"/><use xlink:href="#E"/><path d="M240.7 190.4h1.3V201h-1.3v-10.6zm4.2 7.2c0 1.8 1.2 2.5 2.5 2.5.9 0 1.5-.2 2-.4l.2.9c-.5.2-1.2.4-2.4.4-2.2 0-3.5-1.5-3.5-3.6 0-2.2 1.3-3.9 3.4-3.9 2.4 0 3 2.1 3 3.4v.6h-5.2zm3.9-.9c0-.8-.3-2.1-1.8-2.1-1.3 0-1.9 1.2-2 2.1h3.8zm2.7 2.9c.4.3 1.1.5 1.7.5 1 0 1.4-.5 1.4-1.1s-.4-1-1.3-1.3c-1.3-.5-1.9-1.2-1.9-2 0-1.2.9-2.1 2.5-2.1a4.36 4.36 0 0 1 1.8.4l-.3 1c-.3-.2-.8-.4-1.5-.4-.8 0-1.2.4-1.2 1s.4.9 1.4 1.2c1.3.5 1.9 1.1 1.9 2.2 0 1.3-1 2.2-2.7 2.2-.8 0-1.5-.2-2-.5l.2-1.1zM238.1 85v4.2h4.9V85h1.3v10H243v-4.7h-4.9V95h-1.3V85h1.3z"/><path d="M246.5 85.1c.7-.1 1.6-.2 2.5-.2 1.4 0 2.3.3 2.9.8.5.4.8 1.1.8 1.9 0 1.3-.8 2.2-1.9 2.6h0c.8.3 1.2 1 1.5 2 .3 1.4.6 2.4.8 2.8h-1.3c-.2-.3-.4-1.1-.7-2.4-.3-1.4-.8-1.9-2-1.9h-1.2V95h-1.3v-9.9zm1.3 4.6h1.3c1.4 0 2.3-.8 2.3-1.9 0-1.3-.9-1.9-2.3-1.9-.6 0-1.1.1-1.3.1v3.7zm136.4 168.7h-3.9v3.6h4.3v1.1H379v-10h5.4v1.1h-4.1v3.2h3.9v1zm2.1-.5c0-.7 0-1.4-.1-1.9h1.2l.1 1.2c.4-.7 1.2-1.4 2.4-1.4 1 0 2.5.6 2.5 3.1v4.3h-1.3V259c0-1.2-.4-2.1-1.7-2.1-.9 0-1.5.6-1.8 1.3-.1.2-.1.4-.1.6v4.3h-1.3v-5.2zm13.1 4.1h0c-.4.7-1.2 1.3-2.4 1.3-1.7 0-3.1-1.5-3.1-3.6 0-2.7 1.7-3.9 3.3-3.9 1.1 0 1.9.6 2.2 1.3h0V256h1.2v10.2h-1.3V262zm0-3.2c0-.2 0-.4-.1-.6-.2-.8-.9-1.5-1.9-1.5-1.4 0-2.2 1.1-2.2 2.8 0 1.4.7 2.7 2.1 2.7.8 0 1.6-.5 1.9-1.4.1-.2.1-.4.1-.6v-1.4zm9.5 2.4c0 .7 0 1.4.1 2h-1.2l-.1-1.2c-.3.6-1.1 1.3-2.4 1.3-1.1 0-2.5-.6-2.5-3.2v-4.2h1.3v4c0 1.4.4 2.3 1.6 2.3.9 0 1.5-.6 1.7-1.2.1-.2.1-.4.1-.7v-4.4h1.3v5.3zm3.7-7.3c0 .4-.3.8-.8.8s-.8-.4-.8-.8c0-.5.3-.8.8-.8.4 0 .8.3.8.8zm-1.5 9.2v-7.2h1.3v7.2h-1.3z"/><use xlink:href="#D" x="157.4" y="-34.1"/><path d="M420.3 255.9l1.6 4.3c.2.5.3 1 .5 1.5h0a13.14 13.14 0 0 1 .5-1.5l1.4-4.2h1.4l-2 5.1c-.9 2.5-1.6 3.7-2.5 4.5-.6.6-1.3.8-1.6.8l-.3-1.1c.3-.1.8-.3 1.1-.6.4-.3.8-.8 1.1-1.5.1-.1.1-.2.1-.3s0-.2-.1-.3l-2.7-6.6h1.5zm-40.7-131.1c-.5.2-1.4.5-2.6.5-2.8 0-5-1.8-5-5.1 0-3.1 2.1-5.3 5.2-5.3 1.3 0 2 .3 2.4.4l-.3 1.1a5.44 5.44 0 0 0-2-.4c-2.4 0-3.9 1.5-3.9 4.1 0 2.5 1.4 4 3.9 4a6.03 6.03 0 0 0 2.1-.4l.2 1.1zm8-3.3c0 2.7-1.8 3.8-3.6 3.8-1.9 0-3.5-1.4-3.5-3.7 0-2.4 1.6-3.8 3.6-3.8 2.1-.1 3.5 1.5 3.5 3.7zm-5.8 0c0 1.6.9 2.8 2.2 2.8s2.2-1.2 2.2-2.8c0-1.2-.6-2.8-2.2-2.8-1.5 0-2.2 1.5-2.2 2.8zm7.4-1.6c0-.7 0-1.4-.1-1.9h1.1l.1 1.2c.4-.7 1.1-1.3 2.3-1.3 1 0 1.7.6 2 1.4h0a2.36 2.36 0 0 1 .8-.9c.4-.3.9-.5 1.6-.5 1 0 2.4.6 2.4 3.1v4.2h-1.3V121c0-1.4-.5-2.2-1.6-2.2-.7 0-1.3.5-1.5 1.2-.1.2-.1.4-.1.7v4.4h-1.3v-4.3c0-1.1-.5-2-1.5-2-.8 0-1.4.7-1.6 1.3-.1.2-.1.4-.1.6v4.3h-1.3v-5.1zm12.4.4l-.1-2.4h1.2l.1 1.2c.5-.9 1.4-1.4 2.6-1.4 1.7 0 3.1 1.5 3.1 3.7 0 2.6-1.6 3.9-3.3 3.9-1 0-1.8-.4-2.2-1.1h0v3.9h-1.3v-7.8zm1.3 1.9c0 .2 0 .4.1.5.2.9 1 1.5 2 1.5 1.4 0 2.2-1.1 2.2-2.8 0-1.4-.8-2.7-2.1-2.7-.9 0-1.7.6-2 1.6 0 .2-.1.4-.1.5v1.4zm7.2-7.7h1.3v10.6h-1.3v-10.6z"/><use xlink:href="#E" x="180.1" y="-75.9"/><path d="M422.2 115.9c0 .4-.3.8-.8.8s-.8-.4-.8-.8c0-.5.3-.8.8-.8s.8.3.8.8zm-1.4 9.2v-7.2h1.3v7.2h-1.3zm3.4-5.2c0-.7 0-1.4-.1-1.9h1.2l.1 1.2c.4-.7 1.2-1.4 2.4-1.4 1 0 2.5.6 2.5 3.1v4.3H429V121c0-1.2-.4-2.1-1.7-2.1-.9 0-1.5.6-1.8 1.3-.1.2-.1.4-.1.6v4.3h-1.3v-5.2zm9.8-4.1v2.1h1.9v1H434v3.9c0 .9.3 1.4 1 1.4.3 0 .6 0 .8-.1l.1 1a3.73 3.73 0 0 1-1.2.2c-.6 0-1.1-.2-1.4-.5-.4-.4-.5-1-.5-1.9V119h-1.1v-1h1.1v-1.7l1.2-.5z"/><path d="M155.6 246.7c0-.1.1-.2.1-.3 0 .1 0 .2-.1.3z" fill="#afe6ff"/><g fill="#eca5c9"><path d="M128.4 211.7h-.2l-9.9 1.9c-1.8.7-3.3 1.5-4.4 2.2l-4.1 8.8c0 15.5 13.1 28.1 28.6 28.1 6.6 0 12.7-3.1 17.5-6.9 0-.1.6-2.6.6-6 0-15.5-12.6-28.1-28.1-28.1h0z"/><path d="M138.4 251.9c-15.5 0-28.1-12.6-28.1-28.1l-3.2-2.2c-4.2 4.9-6.7 11.3-6.7 18.2 0 6.3 2.1 12.1 5.6 16.8l32.6 9.4c8.4-3.2 14.9-10.4 17.2-19.3 0-.1.1-.2.1-.3 0 0 .1-.5.2-.7-5 3.9-11.1 6.2-17.7 6.2h0z"/></g><path d="M109 219.5l-2 2.1v12.3h2v-14.4zm19.2-7.8c-3.4 0-6.7.7-9.9 1.9h8.6c3.1 0 5.5 2.5 5.5 5.8v14.5h2v-14.5c0-2.1-.7-4-2.1-5.5-1.1-1.2-2.5-1.9-4.1-2.2h0z" fill="#2896ff"/><path d="M109.2 233.9l.3-14.9a29.49 29.49 0 0 0-2.5 2.5v12.3c0 .5.4 1 1 1 .6.1 1.2-.4 1.2-.9h0z" fill="#1e73be"/><path d="M125.6 251.8l-3.2.3c-5.7.6-9.7 5.8-8.9 11.4 4.3 2.7 9.5 4.3 15 4.3 3.5 0 6.9-.7 10.1-1.9v-1.4c-.1-7-5.9-12.7-13-12.7z" fill="#dd544f"/><path d="M116 251.8c-4.1 0-7.7 1.9-10.1 4.8 2.1 2.7 4.6 5.1 7.5 6.9.5-5.5 4.2-10 9.3-11.3l1.4-.4H116z" fill="#d80a61"/><path d="M120.8 256.9c-2.3 0-4.1-1.8-4.1-4.1v-9.2h8.2v9.2c0 2.3-1.8 4.1-4.1 4.1z" fill="#ff965a"/><path d="M131.9 229.3c0-3.7-2.4-7.1-6.1-7.1h-9.9c-1.1 0-2.1.3-3 .8v19.6a7.85 7.85 0 0 0 7.9 7.9h.1a11.61 11.61 0 0 0 11.6-11.6v-3.7l-.6-5.9z" fill="#ffbe82"/><g fill="#ff965a"><path d="M132.4 237.3v-6.9a2.69 2.69 0 0 1 2.7 2.7v1.5a2.69 2.69 0 0 1-2.7 2.7h0zm-26.1-2.7a2.69 2.69 0 0 0 2.7 2.7v-6.9a2.69 2.69 0 0 0-2.7 2.7v1.5z"/><path d="M121.4 250.5a11.73 11.73 0 0 1-8.5-11.3v-9.5a6.81 6.81 0 0 1 6.8-6.8h8.4c-.7-.3-1.6-.4-2.4-.4h-9.9a6.81 6.81 0 0 0-6.8 6.8v9.5c.1 6.7 5.7 12.1 12.4 11.7h0z"/></g><path d="M128.6 223.2c.7.3 1.2.8 1.6 1.4h2.2V221c0-2.9-2.3-5.2-5.2-5.2h-10.1a4.23 4.23 0 0 0-4.2 4.2v3.3h.1c1.1-.5 2.4.5 2 1.7-.3.8.4 1.7 1.2 1.7h5.7c2.1 0 3.9-1.2 4.9-2.9.3-.7 1.1-1 1.8-.6h0z" fill="#783c28"/><path d="M110.9 217.8l-1.5 1.3c-.2.6-.3 1.2-.3 1.8v14.3a1.58 1.58 0 0 0 1.6-1.6v-6.9c0-1.5.9-2.9 2.2-3.6h.1v-2.2c0-2.9 2.3-5.2 5.2-5.2h-4.4l-2.9 2.1zm19.7 6a3.04 3.04 0 0 1-.5.7c.5.7.7 1.5.7 2.3v6.9a1.58 1.58 0 0 0 1.6 1.6v-12.1c-.7-.3-1.4-.1-1.8.6h0z" fill="#5a2d19"/><path d="M131.1 245.1H127v-2h4.1c.7 0 1.3-.6 1.3-1.3v-13.2h2v13.2a3.33 3.33 0 0 1-3.3 3.3z" fill="#2896ff"/><path d="M129.1 245.8H126c-.9 0-1.7-.7-1.7-1.7 0-.9.7-1.7 1.7-1.7h3.2c.9 0 1.7.7 1.7 1.7-.1.9-.8 1.7-1.8 1.7z" fill="#30579d"/><g fill="#ffe65a"><path d="M157 220.4h-12.5v18H157a2.22 2.22 0 0 0 2.2-2.2v-13.6a2.22 2.22 0 0 0-2.2-2.2z"/><path d="M144.8 236.2v-13.6a2.22 2.22 0 0 1 2.2-2.2h-7a2.22 2.22 0 0 0-2.2 2.2v15.8h9.2c-1.3 0-2.2-1-2.2-2.2z"/><path d="M137.7 237v7.1l7-7-7-.1z"/></g><path d="M149.6 223.9c0-.5.5-.9 1.1-.9s1.1.4 1.1.9" fill="#f1d333"/></svg>