<?xml version="1.0" encoding="UTF-8"?> <svg xmlns="http://www.w3.org/2000/svg" id="b3330ce6-8fee-42f7-aaf7-9323e041b956" data-name="Ebene 1" width="5000px" height="2796px" viewBox="0 0 831.82 471.01"><path d="M251.21,5a16.3,16.3,0,0,0-4.86,2.11c1.18,1.1,2.14,2.19,2.14,2.19l-4.59,5.93a31.18,31.18,0,0,1-3.28-1.87,16.38,16.38,0,0,0-1.46,3.88,31.1,31.1,0,0,1,3.68,1.09l-1.22,7.4H239.4a17,17,0,0,0,1.22,3c1.19-.7,2.21-1.2,2.21-1.2l4.58,5.93s-.54.62-1.31,1.39A16.29,16.29,0,0,0,250.54,37c.16-1.59.46-3,.46-3h7.49s.31,1.58.45,3.29a16.66,16.66,0,0,0,4.93-2c-.9-.88-1.55-1.62-1.55-1.62l4.58-5.93a31.54,31.54,0,0,1,2.84,1.58,16.72,16.72,0,0,0,1.52-3.53c-1.67-.21-3.19-.57-3.19-.57l.3-7.48s1.52-.26,3.19-.36A17,17,0,0,0,269.91,13a29.85,29.85,0,0,1-3.3,1.88L262,9s.91-1,2.05-2.1A16.91,16.91,0,0,0,259.64,5c-.14,1.72-.44,3.3-.44,3.3h-7.5a30.52,30.52,0,0,1-.49-3.3m4.12,24.84a8.74,8.74,0,1,1,8.74-8.74,8.74,8.74,0,0,1-8.74,8.74h0" transform="translate(0 0.04)" style="fill:#00cba8"></path><path d="M255.62,0a6.25,6.25,0,0,0-3.92,1c-.61.62-.64,2.32-.49,3.92a31.25,31.25,0,0,0,.49,3.34h7.5s.3-1.58.44-3.3.1-3.28-.44-4-2.06-1-3.58-1" transform="translate(0 0.04)" style="fill:#00cba8"></path><path d="M258.49,34H251a30.08,30.08,0,0,0-.46,3c-.16,1.61-.2,3.61.46,4.27a6.22,6.22,0,0,0,3.91,1c1.53,0,3-.34,3.58-1s.57-2.37.45-4a31.17,31.17,0,0,0-.45-3.29" transform="translate(0 0.04)" style="fill:#00cba8"></path><path d="M242.77,4.82h0c-1.88,0-4.83,4.07-4.59,5.92.1.8,1.23,1.76,2.46,2.58a31.18,31.18,0,0,0,3.28,1.87l4.59-5.93s-1-1.09-2.14-2.19-2.66-2.25-3.58-2.25" transform="translate(0 0.04)" style="fill:#00cba8"></path><path d="M236.84,16.88a2.44,2.44,0,0,0-1.16.23c-1.63.92-2.31,5.87-1.23,7.39.63.88,3.06,1.13,4.91,1.19h2.22l1.22-7.4a31.1,31.1,0,0,0-3.68-1.09,11.37,11.37,0,0,0-2.32-.32" transform="translate(0 0.04)" style="fill:#00cba8"></path><path d="M272.63,17.39h-1.07a28.56,28.56,0,0,0-3.19.36l-.3,7.48s1.51.36,3.19.57a19,19,0,0,0,2,.14,3.76,3.76,0,0,0,2-.41c1.5-1.12,1.57-6.11.3-7.49-.48-.52-1.69-.68-3-.68" transform="translate(0 0.04)" style="fill:#00cba8"></path><path d="M267.75,4.58c-.95,0-2.45,1.19-3.67,2.34S262,9,262,9l4.61,6a29.85,29.85,0,0,0,3.3-1.88c1.23-.82,2.34-1.77,2.44-2.56.24-1.86-2.71-5.89-4.58-5.93h0" transform="translate(0 0.04)" style="fill:#00cba8"></path><path d="M242.79,27.54s-1,.49-2.21,1.2c-1.56.92-3.4,2.22-3.53,3.24-.24,1.86,2.71,5.89,4.58,5.93h0c1.15,0,3.11-1.75,4.41-3,.77-.77,1.31-1.39,1.31-1.39Z" transform="translate(0 0.04)" style="fill:#00cba8"></path><path d="M266.9,27.78l-4.58,5.93s.65.74,1.55,1.62c1.29,1.27,3.09,2.82,4.17,2.82h0c1.87,0,4.82-4.07,4.59-5.93-.12-.89-1.52-2-2.91-2.86a31.54,31.54,0,0,0-2.84-1.58" transform="translate(0 0.04)" style="fill:#00cba8"></path><path d="M259.53,114.23a23.17,23.17,0,1,1,24.9-21.3,23.17,23.17,0,0,1-24.9,21.3h0m5.23-67a44,44,0,1,0,40.49,47.35,44.05,44.05,0,0,0-40.49-47.35h0" transform="translate(0 0.04)" style="fill:#0045a1"></path><path d="M263.13,68c.72.06,1.43.16,2.13.28l-.2-21.07h-.3A44,44,0,0,0,231.1,59.08L244.43,75.3a23.14,23.14,0,0,1,18.7-7.3" transform="translate(0 0.04)" style="fill:#ffa000"></path><path d="M238.22,89.71l-20.94,2.34a44,44,0,0,0,14.36,31.62l14.74-14.87a23.06,23.06,0,0,1-8.16-19.09" transform="translate(0 0.04)" style="fill:#ffa000"></path><path d="M260.15,114.25l.83,20.92a44,44,0,0,0,32.34-13.75l-13.86-15.86a23.12,23.12,0,0,1-19.31,8.69" transform="translate(0 0.04)" style="fill:#ffa000"></path><path d="M284.43,92.93a23.37,23.37,0,0,1-.46,3l20.77,2.67c.23-1.34.41-2.69.51-4.08a43.88,43.88,0,0,0-8.64-29.8l-17.95,11a23.08,23.08,0,0,1,5.77,17.15" transform="translate(0 0.04)" style="fill:#ffa000"></path><path d="M203.28,27.29a16.33,16.33,0,0,0-4.86,2.12c1.19,1.09,2.14,2.18,2.14,2.18L196,37.52a29.5,29.5,0,0,1-3.28-1.87,16.38,16.38,0,0,0-1.46,3.88,31.56,31.56,0,0,1,3.67,1.1L193.69,48h-2.21a15.6,15.6,0,0,0,1.22,3c1.18-.7,2.2-1.19,2.2-1.19l4.59,5.93s-.54.61-1.32,1.38a16.61,16.61,0,0,0,4.48,2.13c.17-1.59.47-3,.47-3h7.49a33.1,33.1,0,0,1,.44,3.3,16.29,16.29,0,0,0,4.93-2c-.89-.88-1.54-1.62-1.54-1.62L219,50.11s1.41.68,2.84,1.58a16.72,16.72,0,0,0,1.52-3.53,31.49,31.49,0,0,1-3.2-.56l.31-7.49a30.61,30.61,0,0,1,3.18-.35A16.33,16.33,0,0,0,222,35.4a31.55,31.55,0,0,1-3.3,1.88l-4.59-5.92s.91-1,2-2.11a16.73,16.73,0,0,0-4.43-1.91c-.14,1.71-.45,3.29-.45,3.29h-7.49a28.93,28.93,0,0,1-.5-3.34m4.13,24.85a8.75,8.75,0,1,1,8.74-8.76v0a8.74,8.74,0,0,1-8.74,8.74h0" transform="translate(0 0.04)" style="fill:#00cba8"></path><path d="M207.69,22.33a6.18,6.18,0,0,0-3.91,1.05c-.62.61-.64,2.31-.5,3.91a28.93,28.93,0,0,0,.5,3.34h7.49c.2-1.09.35-2.19.44-3.29.13-1.59.11-3.29-.44-4s-2.06-1.05-3.58-1.05" transform="translate(0 0.04)" style="fill:#00cba8"></path><path d="M210.57,56.33h-7.49s-.3,1.4-.47,3-.2,3.6.47,4.27,2.31,1,3.91,1,3-.33,3.58-1,.57-2.38.44-4a33.1,33.1,0,0,0-.44-3.3" transform="translate(0 0.04)" style="fill:#00cba8"></path><path d="M194.84,27.15h0c-1.87,0-4.82,4.07-4.58,5.93.1.79,1.23,1.75,2.45,2.57A32.37,32.37,0,0,0,196,37.52l4.58-5.93s-1-1.09-2.14-2.18-2.66-2.26-3.58-2.26" transform="translate(0 0.04)" style="fill:#00cba8"></path><path d="M188.91,39.22a2.43,2.43,0,0,0-1.16.22c-1.63.93-2.31,5.87-1.22,7.39.63.88,3.05,1.13,4.91,1.19h2.21l1.22-7.39a31.56,31.56,0,0,0-3.67-1.1,11.36,11.36,0,0,0-2.33-.31" transform="translate(0 0.04)" style="fill:#00cba8"></path><path d="M224.71,39.72h-1.08a30.61,30.61,0,0,0-3.18.35l-.31,7.49a31.49,31.49,0,0,0,3.2.56,16.67,16.67,0,0,0,2,.15,3.66,3.66,0,0,0,2-.42c1.51-1.12,1.58-6.11.31-7.49-.48-.52-1.69-.68-3-.68" transform="translate(0 0.04)" style="fill:#00cba8"></path><path d="M219.82,26.92c-.94,0-2.44,1.19-3.67,2.34a23.32,23.32,0,0,0-2,2.1l4.58,5.92A31.11,31.11,0,0,0,222,35.4c1.22-.82,2.34-1.77,2.44-2.56.24-1.85-2.71-5.88-4.58-5.92h0" transform="translate(0 0.04)" style="fill:#00cba8"></path><path d="M194.86,49.88s-1,.49-2.2,1.19c-1.57.93-3.41,2.22-3.54,3.25-.24,1.86,2.71,5.89,4.58,5.93h0c1.14,0,3.1-1.75,4.4-3.06.78-.77,1.32-1.39,1.32-1.39Z" transform="translate(0 0.04)" style="fill:#00cba8"></path><path d="M219,50.11,214.4,56s.65.74,1.54,1.62c1.3,1.27,3.1,2.82,4.17,2.82h0c1.87,0,4.82-4.07,4.58-5.93-.11-.89-1.51-2-2.9-2.86S219,50.11,219,50.11" transform="translate(0 0.04)" style="fill:#00cba8"></path><path d="M239.48,39.32l-.63-.45a1.66,1.66,0,0,0,.63.45" transform="translate(0 0.04)" style="fill:#004699"></path><path d="M325.82,25.26s-33.28,0-33.28,33.28V417.81s0,33.28,33.28,33.28H469s33.28,0,33.28-33.28V58.54s0-33.28-33.28-33.28Z" transform="translate(0 0.04)" style="fill:#fff;stroke:#0045a1;stroke-miterlimit:10;stroke-width:18.48225212097168px"></path><path d="M448,24.14v6.08a13.58,13.58,0,0,1-13.54,13.54h-74a13.58,13.58,0,0,1-13.54-13.54V24.14" transform="translate(0 0.04)" style="fill:#0045a1"></path><path d="M448,24.14v6.08a13.58,13.58,0,0,1-13.54,13.54h-74a13.58,13.58,0,0,1-13.54-13.54V24.14" transform="translate(0 0.04)" style="fill:none;stroke:#0045a1;stroke-miterlimit:10;stroke-width:18.48225212097168px"></path><rect x="523.58" y="110.15" width="11.13" height="2.16" style="fill:#ffa000"></rect><rect x="539.17" y="110.15" width="22.64" height="2.16" style="fill:#ffa000"></rect><rect x="532.12" y="118.79" width="22.27" height="2.16" style="fill:#0045a1"></rect><rect x="558.84" y="118.79" width="22.83" height="2.16" style="fill:#0045a1"></rect><rect x="532.12" y="127.44" width="21.16" height="2.17" style="fill:#0045a1"></rect><rect x="557.73" y="127.44" width="17.45" height="2.17" style="fill:#0045a1"></rect><rect x="579.63" y="127.44" width="18.55" height="2.17" style="fill:#00cba8"></rect><rect x="585.39" y="118.79" width="28.64" height="2.17" style="fill:#00cba8"></rect><rect x="532.12" y="136.09" width="13.36" height="2.16" style="fill:#ffa000"></rect><rect x="602.47" y="127.44" width="13.36" height="2.16" style="fill:#ffa000"></rect><rect x="560.89" y="144.74" width="31.65" height="2.16" style="fill:#ffa000"></rect><rect x="549.94" y="136.09" width="31.93" height="2.16" style="fill:#0045a1"></rect><rect x="586.31" y="136.09" width="10.02" height="2.16" style="fill:#0045a1"></rect><rect x="532.12" y="153.39" width="25.61" height="2.16" style="fill:#0045a1"></rect><rect x="532.12" y="162.04" width="28.77" height="2.16" style="fill:#0045a1"></rect><rect x="565.34" y="162.04" width="20.05" height="2.16" style="fill:#0045a1"></rect><rect x="589.84" y="162.04" width="13.92" height="2.16" style="fill:#0045a1"></rect><rect x="532.12" y="170.69" width="16.15" height="2.16" style="fill:#0045a1"></rect><rect x="552.72" y="170.69" width="34.34" height="2.16" style="fill:#0045a1"></rect><rect x="523.58" y="144.74" width="17.08" height="2.16" style="fill:#00cba8"></rect><rect x="545.11" y="144.74" width="10.4" height="2.16" style="fill:#00cba8"></rect><rect x="93.41" y="276.48" width="138.81" height="39.93" style="fill:#0045a1"></rect><polygon points="232.22 264.53 93.41 264.53 93.41 264.53 93.41 276.48 232.22 276.48 232.22 264.53" style="fill:#00cba8"></polygon><circle cx="99.72" cy="270.5" r="3.62" style="fill:#0045a1"></circle><circle cx="109.14" cy="270.5" r="3.62" style="fill:#fff"></circle><circle cx="118.56" cy="270.5" r="3.62" style="fill:#0096e1"></circle><rect x="99.4" y="282.05" width="26.46" height="28.11" style="fill:#fff"></rect><rect x="132.4" y="282.05" width="11.13" height="2.16" style="fill:#ffa000"></rect><rect x="147.99" y="282.05" width="22.64" height="2.16" style="fill:#ffa000"></rect><rect x="140.94" y="290.69" width="22.27" height="2.16" style="fill:#fff"></rect><rect x="167.67" y="290.69" width="22.83" height="2.16" style="fill:#fff"></rect><rect x="140.94" y="299.34" width="21.16" height="2.17" style="fill:#fff"></rect><rect x="166.56" y="299.34" width="17.45" height="2.17" style="fill:#fff"></rect><rect x="188.46" y="299.34" width="18.55" height="2.17" style="fill:#00cba8"></rect><rect x="194.21" y="290.69" width="28.64" height="2.17" style="fill:#00cba8"></rect><rect x="140.94" y="307.99" width="13.36" height="2.16" style="fill:#ffa000"></rect><rect x="211.3" y="299.34" width="13.36" height="2.16" style="fill:#ffa000"></rect><rect x="158.76" y="307.99" width="31.93" height="2.16" style="fill:#fff"></rect><rect x="195.14" y="307.99" width="10.02" height="2.16" style="fill:#fff"></rect><line y1="465.15" x2="831.82" y2="465.15" style="fill:none;stroke:#0044a1;stroke-width:11.718140602111816px"></line><polyline points="486.81 406.5 486.81 410.5 482.81 410.5" style="fill:none;stroke:#0096e1;stroke-miterlimit:10;stroke-width:1.3321759700775146px"></polyline><line x1="480.21" y1="410.5" x2="315.22" y2="410.5" style="fill:none;stroke:#0096e1;stroke-miterlimit:10;stroke-width:1.3321759700775146px;stroke-dasharray:7.794882774353027,2.598294258117676"></line><polyline points="313.92 410.5 309.93 410.5 309.93 406.5" style="fill:none;stroke:#0096e1;stroke-miterlimit:10;stroke-width:1.3321759700775146px"></polyline><line x1="309.93" y1="403.92" x2="309.93" y2="353.58" style="fill:none;stroke:#0096e1;stroke-miterlimit:10;stroke-width:1.3321759700775146px;stroke-dasharray:7.744459629058838,2.581486701965332"></line><polyline points="309.93 352.29 309.93 348.3 313.92 348.3" style="fill:none;stroke:#0096e1;stroke-miterlimit:10;stroke-width:1.3321759700775146px"></polyline><line x1="316.52" y1="348.3" x2="481.51" y2="348.3" style="fill:none;stroke:#0096e1;stroke-miterlimit:10;stroke-width:1.3321759700775146px;stroke-dasharray:7.794882774353027,2.598294258117676"></line><polyline points="482.81 348.3 486.81 348.3 486.81 352.29" style="fill:none;stroke:#0096e1;stroke-miterlimit:10;stroke-width:1.3321759700775146px"></polyline><line x1="486.81" y1="354.87" x2="486.81" y2="405.21" style="fill:none;stroke:#0096e1;stroke-miterlimit:10;stroke-width:1.3321759700775146px;stroke-dasharray:7.744459629058838,2.581486701965332"></line><rect x="309.93" y="266.3" width="176.88" height="73.85" style="fill:#0045a1"></rect><polygon points="486.81 254.35 309.93 254.35 309.93 254.35 309.93 266.29 486.81 266.29 486.81 254.35" style="fill:#00cba8"></polygon><circle cx="316.24" cy="260.32" r="3.62" style="fill:#0045a1"></circle><circle cx="325.66" cy="260.32" r="3.62" style="fill:#fff"></circle><circle cx="335.08" cy="260.32" r="3.62" style="fill:#0096e1"></circle><rect x="315.91" y="271.86" width="59.03" height="62.71" style="fill:#fff"></rect><rect x="383.64" y="271.86" width="11.13" height="2.16" style="fill:#ffa000"></rect><rect x="399.23" y="271.86" width="22.64" height="2.16" style="fill:#ffa000"></rect><rect x="392.18" y="280.51" width="22.27" height="2.16" style="fill:#fff"></rect><rect x="418.91" y="280.51" width="22.83" height="2.16" style="fill:#fff"></rect><rect x="392.18" y="289.16" width="21.16" height="2.17" style="fill:#fff"></rect><rect x="417.8" y="289.16" width="17.45" height="2.17" style="fill:#fff"></rect><rect x="439.7" y="289.16" width="18.55" height="2.17" style="fill:#00cba8"></rect><rect x="445.45" y="280.51" width="28.64" height="2.17" style="fill:#00cba8"></rect><rect x="392.18" y="297.81" width="13.36" height="2.16" style="fill:#ffa000"></rect><rect x="462.54" y="289.16" width="13.36" height="2.16" style="fill:#ffa000"></rect><rect x="420.95" y="306.46" width="31.65" height="2.16" style="fill:#ffa000"></rect><rect x="410" y="297.81" width="31.93" height="2.16" style="fill:#fff"></rect><rect x="446.38" y="297.81" width="10.02" height="2.16" style="fill:#fff"></rect><rect x="392.18" y="315.11" width="25.61" height="2.16" style="fill:#fff"></rect><rect x="392.18" y="323.76" width="28.77" height="2.16" style="fill:#fff"></rect><rect x="425.4" y="323.76" width="20.05" height="2.16" style="fill:#fff"></rect><rect x="449.9" y="323.76" width="13.92" height="2.16" style="fill:#fff"></rect><rect x="392.18" y="332.41" width="16.15" height="2.16" style="fill:#fff"></rect><rect x="412.78" y="332.41" width="34.34" height="2.16" style="fill:#fff"></rect><rect x="383.64" y="306.46" width="17.08" height="2.16" style="fill:#00cba8"></rect><rect x="405.17" y="306.46" width="10.4" height="2.16" style="fill:#00cba8"></rect><polyline points="484.93 242.56 484.93 246.56 480.93 246.56" style="fill:none;stroke:#0096e1;stroke-miterlimit:10;stroke-width:1.3321759700775146px"></polyline><line x1="478.36" y1="246.56" x2="387.05" y2="246.56" style="fill:none;stroke:#0096e1;stroke-miterlimit:10;stroke-width:1.3321759700775146px;stroke-dasharray:7.716221809387207,2.5720739364624023"></line><polyline points="385.77 246.56 381.77 246.56 381.77 242.56" style="fill:none;stroke:#0096e1;stroke-miterlimit:10;stroke-width:1.3321759700775146px"></polyline><line x1="381.77" y1="239.71" x2="381.77" y2="195.41" style="fill:none;stroke:#0096e1;stroke-miterlimit:10;stroke-width:1.3321759700775146px;stroke-dasharray:8.574202537536621,2.858067750930786"></line><polyline points="381.77 193.98 381.77 189.98 385.77 189.98" style="fill:none;stroke:#0096e1;stroke-miterlimit:10;stroke-width:1.3321759700775146px"></polyline><line x1="388.34" y1="189.98" x2="479.65" y2="189.98" style="fill:none;stroke:#0096e1;stroke-miterlimit:10;stroke-width:1.3321759700775146px;stroke-dasharray:7.716221809387207,2.5720739364624023"></line><polyline points="480.93 189.98 484.93 189.98 484.93 193.98" style="fill:none;stroke:#0096e1;stroke-miterlimit:10;stroke-width:1.3321759700775146px"></polyline><line x1="484.93" y1="196.83" x2="484.93" y2="241.14" style="fill:none;stroke:#0096e1;stroke-miterlimit:10;stroke-width:1.3321759700775146px;stroke-dasharray:8.574202537536621,2.858067750930786"></line><rect x="309.93" y="189.98" width="64.3" height="56.58" style="fill:#0045a1"></rect><path d="M318.56,220.77v-4.33l15.1-6.34v4.74l-10,3.72.16-.22v.55l-.16-.24,10,3.73v4.73Z" transform="translate(0 0.04)" style="fill:#fff"></path><path d="M347.68,204.87l-6.87,25.56h-4.35l6.88-25.56Z" transform="translate(0 0.04)" style="fill:#fff"></path><path d="M365.57,220.77l-15.09,6.34v-4.73l10-3.73-.14.24v-.55l.14.22-10-3.72V210.1l15.09,6.34Z" transform="translate(0 0.04)" style="fill:#fff"></path><rect x="309.93" y="60.92" width="176.88" height="120.92" style="fill:#0045a1"></rect><rect x="328.38" y="77.46" width="22.27" height="2.16" style="fill:#fff"></rect><rect x="355.1" y="77.46" width="22.83" height="2.16" style="fill:#fff"></rect><rect x="328.38" y="86.11" width="21.16" height="2.17" style="fill:#fff"></rect><rect x="354" y="86.11" width="17.45" height="2.17" style="fill:#fff"></rect><rect x="375.89" y="86.11" width="18.55" height="2.17" style="fill:#00cba8"></rect><rect x="381.65" y="77.46" width="28.64" height="2.17" style="fill:#00cba8"></rect><rect x="328.38" y="94.76" width="13.36" height="2.16" style="fill:#ffa000"></rect><rect x="398.73" y="86.11" width="13.36" height="2.16" style="fill:#ffa000"></rect><rect x="357.15" y="103.41" width="31.65" height="2.16" style="fill:#ffa000"></rect><rect x="346.2" y="94.76" width="31.93" height="2.16" style="fill:#fff"></rect><rect x="382.57" y="94.76" width="10.02" height="2.16" style="fill:#fff"></rect><rect x="328.38" y="112.06" width="25.61" height="2.16" style="fill:#fff"></rect><rect x="328.38" y="120.71" width="28.77" height="2.16" style="fill:#fff"></rect><rect x="361.6" y="120.71" width="20.05" height="2.16" style="fill:#fff"></rect><rect x="386.1" y="120.71" width="13.92" height="2.16" style="fill:#fff"></rect><rect x="328.38" y="129.36" width="16.15" height="2.16" style="fill:#fff"></rect><rect x="348.98" y="129.36" width="34.34" height="2.16" style="fill:#fff"></rect><rect x="319.84" y="103.41" width="17.08" height="2.16" style="fill:#00cba8"></rect><rect x="341.37" y="103.41" width="10.4" height="2.16" style="fill:#00cba8"></rect><rect x="319.84" y="138.19" width="11.13" height="2.16" style="fill:#ffa000"></rect><rect x="335.43" y="138.19" width="22.64" height="2.16" style="fill:#ffa000"></rect><rect x="328.38" y="146.84" width="22.27" height="2.16" style="fill:#fff"></rect><rect x="355.1" y="146.84" width="22.83" height="2.16" style="fill:#fff"></rect><rect x="328.38" y="155.49" width="21.16" height="2.17" style="fill:#fff"></rect><rect x="354" y="155.49" width="17.45" height="2.17" style="fill:#fff"></rect><rect x="375.89" y="155.49" width="18.55" height="2.17" style="fill:#00cba8"></rect><rect x="381.65" y="146.84" width="28.64" height="2.17" style="fill:#00cba8"></rect><rect x="328.38" y="164.14" width="13.36" height="2.16" style="fill:#ffa000"></rect><rect x="398.73" y="155.49" width="13.36" height="2.16" style="fill:#ffa000"></rect><rect x="357.15" y="172.79" width="31.65" height="2.16" style="fill:#ffa000"></rect><rect x="346.2" y="164.14" width="31.93" height="2.16" style="fill:#fff"></rect><rect x="382.57" y="164.14" width="10.02" height="2.16" style="fill:#fff"></rect><rect x="319.84" y="172.79" width="17.08" height="2.16" style="fill:#00cba8"></rect><rect x="341.37" y="172.79" width="10.4" height="2.16" style="fill:#00cba8"></rect><rect x="420.06" y="111.41" width="59.03" height="62.71" style="fill:#fff"></rect><polygon points="486.81 60.92 309.93 60.92 309.93 60.92 309.93 72.86 486.81 72.86 486.81 60.92" style="fill:#00cba8"></polygon><circle cx="316.24" cy="66.89" r="3.62" style="fill:#0045a1"></circle><circle cx="325.66" cy="66.89" r="3.62" style="fill:#fff"></circle><circle cx="335.08" cy="66.89" r="3.62" style="fill:#0096e1"></circle><rect x="458.25" y="77.78" width="190.03" height="26.96" style="fill:#0096e1"></rect><circle cx="471.79" cy="89.79" r="6.27" style="fill:none;stroke:#fff;stroke-miterlimit:10;stroke-width:1.2859138250350952px"></circle><line x1="476.3" y1="94.14" x2="481.15" y2="98.99" style="fill:none;stroke:#fff;stroke-miterlimit:10;stroke-width:1.2859138250350952px"></line><rect x="639.88" y="156.38" width="73.99" height="25.33" style="fill:#0045a1"></rect><path d="M654.07,171.75a2.68,2.68,0,0,1-2-.81,2.74,2.74,0,0,1,3.87-3.88,2.62,2.62,0,0,1,.45,3.32,3,3,0,0,1-1,1A2.55,2.55,0,0,1,654.07,171.75Z" transform="translate(0 0.04)" style="fill:#fff"></path><path d="M663.19,171.75a2.68,2.68,0,0,1-2-.81,2.74,2.74,0,1,1,3.87-3.88A2.61,2.61,0,0,1,666,169a2.64,2.64,0,0,1-.4,1.39,3,3,0,0,1-1,1A2.56,2.56,0,0,1,663.19,171.75Z" transform="translate(0 0.04)" style="fill:#fff"></path><path d="M672.31,171.75a2.68,2.68,0,0,1-2-.81,2.74,2.74,0,0,1,3.88-3.88,2.63,2.63,0,0,1,.44,3.32,3,3,0,0,1-1,1A2.55,2.55,0,0,1,672.31,171.75Z" transform="translate(0 0.04)" style="fill:#fff"></path><path d="M681.43,171.75a2.68,2.68,0,0,1-2-.81,2.74,2.74,0,1,1,3.88-3.88,2.63,2.63,0,0,1,.44,3.32,3,3,0,0,1-1,1A2.55,2.55,0,0,1,681.43,171.75Z" transform="translate(0 0.04)" style="fill:#fff"></path><path d="M690.55,171.75a2.68,2.68,0,0,1-2-.81,2.74,2.74,0,0,1,3.88-3.88,2.57,2.57,0,0,1,.84,1.93,2.63,2.63,0,0,1-.39,1.39,3,3,0,0,1-1,1A2.59,2.59,0,0,1,690.55,171.75Z" transform="translate(0 0.04)" style="fill:#fff"></path><path d="M699.67,171.75a2.66,2.66,0,0,1-1.95-.81,2.73,2.73,0,0,1,0-3.86l0,0a2.73,2.73,0,0,1,3.87,0,2.62,2.62,0,0,1,.45,3.32,3,3,0,0,1-1,1A2.54,2.54,0,0,1,699.67,171.75Z" transform="translate(0 0.04)" style="fill:#fff"></path><polygon points="647.52 181.71 647.52 187.42 655.78 181.71 647.52 181.71" style="fill:#0045a1"></polygon><rect x="160.75" y="209.98" width="83.56" height="25.33" style="fill:#0045a1"></rect><path d="M224,225a3,3,0,0,1-1-1,2.63,2.63,0,0,1,.44-3.32,2.75,2.75,0,0,1,3.88,0,2.55,2.55,0,0,1,.8,1.93,2.61,2.61,0,0,1-.8,1.95,2.68,2.68,0,0,1-2,.81A2.58,2.58,0,0,1,224,225Z" transform="translate(0 0.04)" style="fill:#fff"></path><path d="M214.86,225a3,3,0,0,1-1-1,2.63,2.63,0,0,1,.44-3.32,2.75,2.75,0,0,1,3.88,0,2.55,2.55,0,0,1,.8,1.93,2.61,2.61,0,0,1-.8,1.95A2.74,2.74,0,0,1,214.86,225Z" transform="translate(0 0.04)" style="fill:#fff"></path><path d="M205.74,225a3,3,0,0,1-1-1,2.63,2.63,0,0,1-.39-1.39,2.57,2.57,0,0,1,.84-1.93,2.75,2.75,0,0,1,3.88,0,2.63,2.63,0,0,1,.8,1.93,2.69,2.69,0,0,1-.8,1.95,2.74,2.74,0,0,1-3.32.44Z" transform="translate(0 0.04)" style="fill:#fff"></path><path d="M196.62,225a3,3,0,0,1-1-1,2.62,2.62,0,0,1,.45-3.32,2.73,2.73,0,0,1,3.87,0,2.73,2.73,0,0,1,0,3.88,2.68,2.68,0,0,1-2,.81A2.79,2.79,0,0,1,196.62,225Z" transform="translate(0 0.04)" style="fill:#fff"></path><path d="M187.5,225a3,3,0,0,1-1-1,2.62,2.62,0,0,1,.45-3.32,2.73,2.73,0,0,1,3.87,0,2.55,2.55,0,0,1,.8,1.93,2.61,2.61,0,0,1-.8,1.95,2.74,2.74,0,0,1-3.31.44Z" transform="translate(0 0.04)" style="fill:#fff"></path><path d="M178.38,225a3,3,0,0,1-1-1,2.62,2.62,0,0,1,.45-3.32,2.73,2.73,0,0,1,3.87,0,2.55,2.55,0,0,1,.8,1.93,2.61,2.61,0,0,1-.8,1.95,2.68,2.68,0,0,1-2,.81A2.58,2.58,0,0,1,178.38,225Z" transform="translate(0 0.04)" style="fill:#fff"></path><polygon points="236.67 235.31 236.67 241.01 228.41 235.31 236.67 235.31" style="fill:#0045a1"></polygon><rect x="160.76" y="178.96" width="22.27" height="2.16" style="fill:#0045a1"></rect><rect x="187.48" y="178.96" width="22.83" height="2.16" style="fill:#0045a1"></rect><rect x="160.76" y="187.6" width="21.16" height="2.17" style="fill:#0045a1"></rect><rect x="186.37" y="187.6" width="17.45" height="2.17" style="fill:#0045a1"></rect><rect x="208.27" y="187.6" width="18.55" height="2.17" style="fill:#00cba8"></rect><rect x="214.02" y="178.95" width="30.45" height="2.17" style="fill:#00cba8"></rect><rect x="160.76" y="196.25" width="13.36" height="2.16" style="fill:#ffa000"></rect><rect x="231.11" y="187.6" width="13.36" height="2.16" style="fill:#ffa000"></rect><rect x="178.57" y="196.25" width="31.93" height="2.16" style="fill:#0045a1"></rect><rect x="214.95" y="196.25" width="10.02" height="2.16" style="fill:#0045a1"></rect><rect x="233.34" y="196.25" width="11.13" height="2.16" style="fill:#ffa000"></rect><path d="M240.7,165.51a2.3,2.3,0,1,0,2.3,2.3h0a2.3,2.3,0,0,0-2.3-2.29" transform="translate(0 0.04)" style="fill:#262625"></path><path d="M240.7,164a3.77,3.77,0,1,0,3.77,3.77h0a3.76,3.76,0,0,0-3.76-3.76h0" transform="translate(0 0.04)" style="fill:#ffa000"></path><path d="M240.7,165.48a2.33,2.33,0,1,0,2.3,2.36v0a2.32,2.32,0,0,0-2.32-2.32h0" transform="translate(0 0.04)" style="fill:#0045a1"></path><path d="M240.7,166.89a.92.92,0,1,0,.92.92h0a.93.93,0,0,0-.92-.91" transform="translate(0 0.04)" style="fill:#00cba8"></path><path d="M219.72,165.51a2.3,2.3,0,1,0,2.3,2.3h0a2.3,2.3,0,0,0-2.3-2.29" transform="translate(0 0.04)" style="fill:#262625"></path><path d="M219.72,164a3.77,3.77,0,1,0,3.77,3.77h0a3.76,3.76,0,0,0-3.76-3.76h0" transform="translate(0 0.04)" style="fill:#ffa000"></path><path d="M219.72,165.48a2.33,2.33,0,1,0,2.33,2.33h0a2.34,2.34,0,0,0-2.33-2.32" transform="translate(0 0.04)" style="fill:#0045a1"></path><path d="M219.72,166.89a.92.92,0,1,0,.92.92h0a.93.93,0,0,0-.92-.91" transform="translate(0 0.04)" style="fill:#0045a1"></path><polygon points="238.84 165.35 240.21 167.93 240.97 167.52 239.59 164.94 238.84 165.35" style="fill:#00cba8"></polygon><polygon points="238.81 161.28 239.56 163.91 240.46 162.67 240 160.96 238.81 161.28" style="fill:#f20024"></polygon><path d="M244.33,163.22a10.34,10.34,0,0,0-4.08,1.34,2.72,2.72,0,0,0-.43.4c-1.16,1.37-2.78,1.32-4.06,1.36a4.75,4.75,0,0,1,.57-3.11c1.11-1.77,2.86-2.32,5-2.07l.37.05a3.74,3.74,0,0,1,2.59,2" transform="translate(0 0.04)" style="fill:#00cba8"></path><path d="M237.83,163.23c-.3,2.6-3.32,4.41-3.32,4.41H224.1s.34-.21-.21-1.43-1.23-1.63,1.09-2.9,4.63-1.53,4.12-.52a3.33,3.33,0,0,0-.21.63c-.21,1,0,2.16.32,2.16h3.24a2.56,2.56,0,0,0,1.76-1,7.38,7.38,0,0,0,1.07-1.47c.69-1.22-.45-3.51-1-5.66s.32-2.31.56-2.22h0l2,2.64a11.72,11.72,0,0,1,.94,5.32" transform="translate(0 0.04)" style="fill:#0045a1"></path><path d="M226.79,169.61H223v-.67h3.69a1.67,1.67,0,0,0,1.52-1.74h.67a2.35,2.35,0,0,1-2.12,2.41" transform="translate(0 0.04)" style="fill:#0045a1"></path><path d="M217.12,166.57l-.55.68a.71.71,0,0,0,.3,1,.73.73,0,0,0,.25.08l6.37,1.07c.47.06.88.08.88-.4a.8.8,0,0,0-.48-.73L219,166.57c-.76-.33-1.52-.73-1.91,0" transform="translate(0 0.04)" style="fill:#00cba8"></path><path d="M229.24,167.66c-1.36.66-2,2-5,1.39-.41-.08-1.08-1-1.32-1.37s.24-.92,0-1.32c-.1-.17,0-.34-.16-.5a.59.59,0,0,1,.05-.56.79.79,0,0,1,.36-.29,13.09,13.09,0,0,1,2.49-1c.47-.13,2.16-.73,2.56-.41s-.07,1.57,0,2a3.54,3.54,0,0,0,1,2" transform="translate(0 0.04)" style="fill:#0045a1"></path><path d="M218.55,161.08c-.28-.14-1.73-.38-2.27.46a6.67,6.67,0,0,0-.73,2.22Z" transform="translate(0 0.04)" style="fill:#ffa000"></path><path d="M229.07,159.52l.94,1.16a8.29,8.29,0,0,0-.94,2.45c-.52,1.88-1.67,2.05-2.92,1.6s-4.92-1.7-5.72-1.41l-6,2.25s3-5.92,7-6.2a46.17,46.17,0,0,1,7.62.15" transform="translate(0 0.04)" style="fill:#0045a1"></path><path d="M235.12,155.17c-.48-.19-.45.81.34,2s2.09,4.83,1.64,6.12a5.56,5.56,0,0,1-3.14,3.22c-1.23.28-8.43.48-8.52.48s-.7.28-.36.39a7.87,7.87,0,0,1,2.61.64c.78.54,4.79.57,6,.4a3.73,3.73,0,0,0,3.36-2.27c.7-1.74,1.57-3.81,2.52-4.48s1-1.35-.08-2.19-4-4.13-4.39-4.29" transform="translate(0 0.04)" style="fill:#00cba8"></path><path d="M233.63,155.54l-.52-1.15a.31.31,0,0,1,.16-.41h0l.86-.33a.31.31,0,0,1,.4.17l.5,1.15a.31.31,0,0,1-.17.41h0l-.84.33a.32.32,0,0,1-.4-.16" transform="translate(0 0.04)" style="fill:#0045a1"></path><path d="M234.25,155.15l.78.09a.24.24,0,0,0,.23-.11l.24-.34a.28.28,0,0,0,0-.25l-.38-.86a.26.26,0,0,0-.35-.12h0l-.51.29L234,154a.26.26,0,0,0-.12.27l.16.68a.22.22,0,0,0,.21.2" transform="translate(0 0.04)" style="fill:#0045a1"></path><path d="M234.26,153.8l-.4-.83a.25.25,0,0,0-.33-.11l-.53.24a.25.25,0,0,0-.13.32l.3.73a.26.26,0,0,0,.28.15l.64-.14a.28.28,0,0,0,.18-.34v0" transform="translate(0 0.04)" style="fill:#0045a1"></path><path d="M233,154.27a.46.46,0,0,1-.46.8h0a.46.46,0,0,1-.16-.63.41.41,0,0,1,.16-.16.44.44,0,0,1,.47,0" transform="translate(0 0.04)" style="fill:#00cba8"></path><path d="M233.65,153.64a.46.46,0,0,1,.16.63.41.41,0,0,1-.16.16.46.46,0,0,1-.47-.79.44.44,0,0,1,.47,0" transform="translate(0 0.04)" style="fill:#00cba8"></path><polygon points="232.45 154.39 232.78 154.71 233.11 155.03 233.76 154.4 233.09 153.76 232.45 154.39" style="fill:#00cba8"></polygon><path d="M232.84,151.31c0,.63-.23,1.13-.51,1.13s-.52-.5-.52-1.13.23-1.13.52-1.13.51.51.51,1.13" transform="translate(0 0.04)" style="fill:#0045a1"></path><path d="M234.24,154s-.75-1.73-1-2.28a.79.79,0,0,0-.89-.4V151a1.28,1.28,0,0,1,1.22.6c.27.55,1,2.26,1,2.28Z" transform="translate(0 0.04)" style="fill:#0045a1"></path><path d="M237.18,158.65c.49,1,.73,1.76,1.19,1.64A3,3,0,0,0,239,160a.21.21,0,0,0,0-.31s0,0,0,0c-.6-.5-2.18-1.76-1.82-1" transform="translate(0 0.04)" style="fill:#fff"></path><path d="M236.25,155.46h.25v-3.08h-.25a1.54,1.54,0,1,0,0,3.08" transform="translate(0 0.04)" style="fill:#ffa000"></path><rect x="236.5" y="152.42" width="0.67" height="3.08" style="fill:#00cba8"></rect><path d="M230.17,160.67h-7.66a5.24,5.24,0,0,1-3.47-1.92l-.12-.15c-.62-.78-1.09-1.41,0-1.18a26.1,26.1,0,0,0,4.54,1c1.29,0,3.58-.56,5.43-.33a2.52,2.52,0,0,1,1.92,1.56h0a.69.69,0,0,1-.33.93.67.67,0,0,1-.31.07" transform="translate(0 0.04)" style="fill:#0045a1"></path><path d="M226.19,165.65c.23-1,.66-4-2.27-5-3.53-1.18-8.82,3.59-9.5,4.88v.08Z" transform="translate(0 0.04)" style="fill:#00cba8"></path><path d="M212.39,163.48a6.09,6.09,0,0,0-2,5.43l-28.22-.3a7.32,7.32,0,0,0-1.86-5.4c-2.16-2.1-5.46-1.62-7.47-.06s-1.8,5-1.8,5-3.39-.36-4.86-.72a4.16,4.16,0,0,1-2.31-1.83,8.35,8.35,0,0,1-.27-1.86c0-.87,0-.72.36-1a1.32,1.32,0,0,0,.51-1,10.68,10.68,0,0,1,.18-1.11,4.68,4.68,0,0,1-.33-1.56.83.83,0,0,1,.72-.84l-.06-.51c-.06-.51.48-1.05,1.38-1.2s5-.36,5-.36,7.08-2.79,9.15-3.3a56.9,56.9,0,0,1,11.36-.87,26.6,26.6,0,0,1,8.16,1.32l-.45.27,2.16,1a47.76,47.76,0,0,1,6.27,4.08l1.26-.24c1.26-.24.6-.84.93-.78s11.25,1.92,13.68,2.7,2.28,2.64,2.37,3.72,0,2.52.06,2.91,1.2.54.36,1a35.5,35.5,0,0,1-5.16,1.32c1.13-6-5-9.38-9.09-5.79" transform="translate(0 0.04)" style="fill:#0045a1"></path><path d="M225.21,161.61c.31.09.55.74.6,1s-.21.27-.37.34-.22.45-.35.49-1.88-.07-2.1-.09a11.2,11.2,0,0,1-1.92-1.51c-.17-.22.15-.29.15-.29s3.69,0,4,.09" transform="translate(0 0.04)" style="fill:#fff"></path><path d="M225.72,167.4a5.56,5.56,0,0,1-1.71.36h-.23a3.73,3.73,0,0,1,.35-.79,1.54,1.54,0,0,1,.79-.72c.34-.11,1.06-.27,1.06-.27a1.82,1.82,0,0,1-.26,1.47" transform="translate(0 0.04)" style="fill:#ff9f00"></path><path d="M221,167.09a4.91,4.91,0,1,0-5.17,4.63h.26a4.79,4.79,0,0,0,4.91-4.64" transform="translate(0 0.04)" style="fill:#ff9f00"></path><path d="M219.65,167.09a3.61,3.61,0,1,0-3.8,3.4H216a3.52,3.52,0,0,0,3.61-3.41" transform="translate(0 0.04)" style="fill:#00439f"></path><path d="M217.42,167.09A1.38,1.38,0,1,0,216,168.4h0a1.35,1.35,0,0,0,1.38-1.31" transform="translate(0 0.04)" style="fill:#ff9f00"></path><path d="M216,162.46a4.79,4.79,0,0,1,5,4.55v.09a4.37,4.37,0,0,1-.51,2l1,.13c1.13-6-5-9.38-9.09-5.79a6.1,6.1,0,0,0-2.07,5.23l1.06-.17a4.4,4.4,0,0,1-.24-1.44,4.77,4.77,0,0,1,4.9-4.64h0" transform="translate(0 0.04)" style="fill:#00c9a6"></path><path d="M199.55,153.58l2.16,1a47.76,47.76,0,0,1,6.27,4.08l1.26-.24c1.26-.24.6-.84.93-.78,0,0-7.75-4-10.17-4.29Z" transform="translate(0 0.04)" style="fill:#00c9a6"></path><path d="M175.56,157.51c-1.74,0-1.5-.18-.66-.6s7.44-3.3,11-3.84a43.27,43.27,0,0,1,12.39.6c3.12.63,8.76,5,8.76,5s-29.73-1.14-31.47-1.14" transform="translate(0 0.04)" style="fill:#00c9a6"></path><path d="M194.27,157.29s-1.55-2.94-1-3.3,2.76,0,4.89.51,6,3.09,6,3.09Z" transform="translate(0 0.04)" style="fill:#fff"></path><path d="M180.56,156.66c-1.65-.18-1-.33-1-.33s3.09-1.59,4.11-1.92a30.86,30.86,0,0,1,5.5-.68,1.35,1.35,0,0,1,1.28.92l.3,2.43s-8.55-.24-10.2-.42" transform="translate(0 0.04)" style="fill:#fff"></path><path d="M196.78,160.15h0a.29.29,0,0,1-.27.29H194.1a.29.29,0,0,1-.29-.29.29.29,0,0,1,.28-.28h2.41a.27.27,0,0,1,.28.26v0" transform="translate(0 0.04)" style="fill:#00c9a6"></path><path d="M183.62,160.15h0a.29.29,0,0,1-.29.29h-2.4a.29.29,0,0,1,0-.57h2.4a.29.29,0,0,1,.29.27h0" transform="translate(0 0.04)" style="fill:#00c9a6"></path><path d="M181.47,167.09a4.91,4.91,0,1,0-5.17,4.63h.27a4.78,4.78,0,0,0,4.9-4.64" transform="translate(0 0.04)" style="fill:#ff9f00"></path><path d="M180.17,167.09a3.61,3.61,0,1,0-3.8,3.4h.2a3.51,3.51,0,0,0,3.6-3.41" transform="translate(0 0.04)" style="fill:#00439f"></path><path d="M178,167.09a1.38,1.38,0,1,0-1.45,1.31h.07a1.35,1.35,0,0,0,1.38-1.31" transform="translate(0 0.04)" style="fill:#ff9f00"></path><path d="M181.47,167.1a5.12,5.12,0,0,1-.08.87l.75.31a7.18,7.18,0,0,0-1.87-5.07c-2.16-2.1-5.46-1.62-7.47-.06-1.6,1.24-1.79,3.67-1.81,4.62h.73a4,4,0,0,1-.05-.69,4.91,4.91,0,0,1,9.8,0" transform="translate(0 0.04)" style="fill:#00c9a6"></path><path d="M164.28,159.07a4.68,4.68,0,0,0,.33,1.56,11.65,11.65,0,0,0,1.56.08v-.15c0-.15.29-.95.39-1.28s.21-.55-.06-.58a15.35,15.35,0,0,1-1.5-.47.83.83,0,0,0-.72.84" transform="translate(0 0.04)" style="fill:#ff9f00"></path><path d="M170.94,156.73s4.56-1.83,5.55-2.16a28.68,28.68,0,0,0,3.59-1.23,1,1,0,0,1-.17-.32c-2.56.77-8.58,3.14-8.58,3.14-.77.71-.39.57-.39.57" transform="translate(0 0.04)" style="fill:#00c9a6"></path><path d="M207,166c-1.17,0-19.38-.9-20.37-.78a6.82,6.82,0,0,0-2,.39c-.15.15,2.88.21,8.28.51l16.17.87c.48-.6-.87-1-2-1" transform="translate(0 0.04)" style="fill:#fff"></path><path d="M164.4,163.47a2.18,2.18,0,0,1-.11-1.16,1.24,1.24,0,0,1-.37.45c-.33.27-.36.12-.36,1a8.35,8.35,0,0,0,.27,1.86,4.16,4.16,0,0,0,2.31,1.83c1.47.36,4.86.72,4.86.72v-.39a9,9,0,0,1,.26-2c-4.63.51-6.61-1.73-6.85-2.27" transform="translate(0 0.04)" style="fill:#0045a1"></path><circle cx="718.65" cy="64.92" r="34.15" style="fill:#0096e1"></circle><circle cx="718.65" cy="64.92" r="1.77" style="fill:#fff"></circle><circle cx="718.65" cy="64.92" r="38.77" style="fill:none;stroke:#0045a1;stroke-miterlimit:10;stroke-width:1.2859138250350952px"></circle><line x1="718.65" y1="64.92" x2="718.65" y2="38.21" style="fill:none;stroke:#fff;stroke-miterlimit:10;stroke-width:1.2859138250350952px"></line><line x1="718.65" y1="64.92" x2="727.72" y2="80.63" style="fill:none;stroke:#fff;stroke-miterlimit:10;stroke-width:1.2859138250350952px"></line><line x1="718.65" y1="32.15" x2="718.65" y2="36.14" style="fill:none;stroke:#0045a1;stroke-miterlimit:10;stroke-width:1.2859138250350952px"></line><line x1="685.88" y1="64.92" x2="689.86" y2="64.92" style="fill:none;stroke:#0045a1;stroke-miterlimit:10;stroke-width:1.2859138250350952px"></line><line x1="718.65" y1="97.69" x2="718.65" y2="93.71" style="fill:none;stroke:#0045a1;stroke-miterlimit:10;stroke-width:1.2859138250350952px"></line><line x1="751.42" y1="64.92" x2="747.44" y2="64.92" style="fill:none;stroke:#0045a1;stroke-miterlimit:10;stroke-width:1.2859138250350952px"></line><line x1="702.26" y1="36.54" x2="704.26" y2="39.99" style="fill:none;stroke:#fff;stroke-miterlimit:10;stroke-width:1.2859138250350952px"></line><line x1="690.27" y1="81.31" x2="693.72" y2="79.32" style="fill:none;stroke:#fff;stroke-miterlimit:10;stroke-width:1.2859138250350952px"></line><line x1="735.03" y1="93.3" x2="733.04" y2="89.85" style="fill:none;stroke:#fff;stroke-miterlimit:10;stroke-width:1.2859138250350952px"></line><line x1="747.03" y1="48.54" x2="743.58" y2="50.53" style="fill:none;stroke:#fff;stroke-miterlimit:10;stroke-width:1.2859138250350952px"></line><line x1="690.27" y1="48.54" x2="693.72" y2="50.53" style="fill:none;stroke:#fff;stroke-miterlimit:10;stroke-width:1.2859138250350952px"></line><line x1="702.26" y1="93.3" x2="704.26" y2="89.85" style="fill:none;stroke:#fff;stroke-miterlimit:10;stroke-width:1.2859138250350952px"></line><line x1="747.03" y1="81.31" x2="743.58" y2="79.32" style="fill:none;stroke:#fff;stroke-miterlimit:10;stroke-width:1.2859138250350952px"></line><line x1="735.03" y1="36.54" x2="733.04" y2="39.99" style="fill:none;stroke:#fff;stroke-miterlimit:10;stroke-width:1.2859138250350952px"></line><rect x="62.55" y="174.23" width="64.3" height="64.3" style="fill:#0045a1"></rect><path d="M101.55,205.38v-5.73a6.86,6.86,0,1,0-13.71-.52,4.51,4.51,0,0,0,0,.52v5.73" transform="translate(0 0.04)" style="fill:none;stroke:#fda300;stroke-miterlimit:10;stroke-width:2.5718276500701904px"></path><rect x="82.17" y="205.42" width="25.05" height="22.81" rx="2.29" style="fill:#ffa000"></rect><path d="M98.12,214.51a3.43,3.43,0,1,0-5.31,2.86v3.25a1.89,1.89,0,1,0,3.77.27,1.22,1.22,0,0,0,0-.27v-3.25A3.43,3.43,0,0,0,98.12,214.51Z" transform="translate(0 0.04)" style="fill:#fff"></path><polygon points="126.84 172.98 62.55 172.98 62.55 172.98 62.55 184.93 126.84 184.93 126.84 172.98" style="fill:#00cba8"></polygon><circle cx="68.86" cy="178.96" r="3.62" style="fill:#0045a1"></circle><circle cx="78.28" cy="178.96" r="3.62" style="fill:#fff"></circle><circle cx="87.7" cy="178.96" r="3.62" style="fill:#0096e1"></circle><rect x="717.28" y="277.09" width="64.3" height="64.3" style="fill:#0045a1"></rect><path d="M749.43,335.07a19.29,19.29,0,1,0-19.29-19.29h0a19.29,19.29,0,0,0,19.29,19.29" transform="translate(0 0.04)" style="fill:#fff"></path><path d="M749.43,315.78a6,6,0,1,0-6-6A6,6,0,0,0,749.43,315.78Zm0,3.21a12.75,12.75,0,0,0-12.66,11.32,19.19,19.19,0,0,0,25.31,0A12.74,12.74,0,0,0,749.43,319Z" transform="translate(0 0.04)" style="fill:#05c6a8"></path><polygon points="781.58 277.09 717.28 277.09 717.28 277.09 717.28 289.03 781.58 289.03 781.58 277.09" style="fill:#00cba8"></polygon><circle cx="723.59" cy="283.06" r="3.62" style="fill:#0045a1"></circle><circle cx="733.01" cy="283.06" r="3.62" style="fill:#fff"></circle><circle cx="742.43" cy="283.06" r="3.62" style="fill:#0096e1"></circle><rect x="338.48" y="394.85" width="64.3" height="64.3" style="fill:#0045a1"></rect><polygon points="402.78 393.6 338.48 393.6 338.48 393.6 338.48 405.54 402.78 405.54 402.78 393.6" style="fill:#00cba8"></polygon><circle cx="344.79" cy="399.57" r="3.62" style="fill:#0045a1"></circle><circle cx="354.22" cy="399.57" r="3.62" style="fill:#fff"></circle><circle cx="363.64" cy="399.57" r="3.62" style="fill:#0096e1"></circle><polygon points="392.94 431.73 373.65 420.59 373.65 442.87 392.94 431.73" style="fill:#0096e1"></polygon><rect x="359.04" y="420.59" width="5.37" height="22.28" style="fill:#ffa000"></rect><rect x="348.32" y="420.59" width="5.37" height="22.28" style="fill:#ffa000"></rect><rect x="51.04" y="394.85" width="64.3" height="64.3" style="fill:#0045a1"></rect><polygon points="115.33 394.85 51.04 394.85 51.04 394.85 51.04 406.79 115.33 406.79 115.33 394.85" style="fill:#00cba8"></polygon><circle cx="57.35" cy="400.82" r="3.62" style="fill:#0045a1"></circle><circle cx="66.77" cy="400.82" r="3.62" style="fill:#fff"></circle><circle cx="76.19" cy="400.82" r="3.62" style="fill:#0096e1"></circle><path d="M93.58,428.74a7.7,7.7,0,0,0-.83.05,5.81,5.81,0,0,0-5.53-4.1,5.9,5.9,0,0,0-1.86.31A7.53,7.53,0,0,0,71,428.16a7.36,7.36,0,0,0,.23,1.81,6.36,6.36,0,0,0,.93,12.64H93.58a6.94,6.94,0,0,0,0-13.87" transform="translate(0 0.04)" style="fill:#0096e1"></path><line x1="83.19" y1="416.97" x2="83.19" y2="434.13" style="fill:none;stroke:#ffa000;stroke-width:1.2859138250350952px"></line><polyline points="86.06 431.26 83.19 434.13 80.31 431.26" style="fill:none;stroke:#ffa000;stroke-width:1.2859138250350952px"></polyline><rect x="717.28" y="394.85" width="64.3" height="64.3" style="fill:#0045a1"></rect><polygon points="781.58 394.85 717.28 394.85 717.28 394.85 717.28 406.79 781.58 406.79 781.58 394.85" style="fill:#00cba8"></polygon><circle cx="723.59" cy="400.82" r="3.62" style="fill:#0045a1"></circle><circle cx="733.01" cy="400.82" r="3.62" style="fill:#fff"></circle><circle cx="742.43" cy="400.82" r="3.62" style="fill:#0096e1"></circle><path d="M731.24,428.87a2.51,2.51,0,0,0-1.29,3.31l0,.1,7,15.06a2.54,2.54,0,0,0,3.34,1.29l.08,0,28.43-13.26a2.51,2.51,0,0,0,1.28-3.32.3.3,0,0,0,0-.1l-7-15.06a2.51,2.51,0,0,0-3.32-1.28l-.1,0Z" transform="translate(0 0.04)" style="fill:#05c6a8"></path><path d="M731,422.4a2.52,2.52,0,0,0-2.57,2.47v16.72a2.52,2.52,0,0,0,2.47,2.57h31.47a2.52,2.52,0,0,0,2.57-2.47V425a2.52,2.52,0,0,0-2.47-2.57h-.1Z" transform="translate(0 0.04)" style="fill:#0096e1"></path><path d="M762.65,439.57a2.26,2.26,0,0,0-3.88-1.59,2.25,2.25,0,0,1,0,3.17,2.26,2.26,0,0,0,3.88-1.58" transform="translate(0 0.04)" style="fill:#0045a1"></path><path d="M756.6,441.83a2.27,2.27,0,1,0-2.26-2.28v0a2.26,2.26,0,0,0,2.26,2.26h0" transform="translate(0 0.04)" style="fill:#fff"></path><line x1="750.97" y1="433.05" x2="730.79" y2="433.05" style="fill:none;stroke:#fff;stroke-width:1.928870677947998px"></line><line x1="744.29" y1="436.44" x2="730.79" y2="436.44" style="fill:none;stroke:#fff;stroke-width:1.928870677947998px"></line><polygon points="730.79 425.14 730.79 425.14 730.79 428.19 735.9 428.19 735.9 425.14 730.79 425.14" style="fill:#0045a1"></polygon><rect x="535.27" y="350.73" width="155.08" height="109.53" style="fill:#0045a1"></rect><rect x="524.99" y="350.73" width="175.64" height="8.67" style="fill:#00cba8"></rect><path d="M586.15,195.73s-2.32,8,3.39,12.29c2.38,1.8,3,5.28,1.88,7.23s-2.33,4-2.33,4l1.77,4.14,20.86-5.49-5.46-35.06Z" transform="translate(0 0.04)" style="fill:#0045a1"></path><path d="M625.69,213.37s-17.12,19.77-23.45,24.35c0,0-7.27-6.57-2.79-23.92C599.45,213.8,607.72,209.66,625.69,213.37Z" transform="translate(0 0.04)" style="fill:#f9a480"></path><path d="M642.6,307.37,645,312l-57.08,1.66c3-10.08,2-23.73,1.51-34.09-.65-12.65-7.63-21.44-6.89-34.24-3.76.61-4.41.72-8.19,1.3,5.77-16.43,7.74-24.56,25.65-30.89a33.68,33.68,0,0,1,16-1.94c20.74,1.71,18.24,1.42,28.43,20.22-15.95,2.53-4.57,8.79-9.41,24.66-2.36,7.73-4.82,16.37-3.55,24.53S642.6,300.05,642.6,307.37Z" transform="translate(0 0.04)" style="fill:#0096e1"></path><path d="M641.43,241.23h0a142,142,0,0,0-6.4,17.43,1.67,1.67,0,0,1-.15.5c-2.07,7-1.88,14.68-.76,23.26.85,6.48,5.69,17.08,8.61,22.24a3.49,3.49,0,0,1-.12,2.69h0a1.94,1.94,0,0,1-1,1.12l-10.55,3.91-2.48.92a5.41,5.41,0,0,1-7-3.2,5.27,5.27,0,0,1-.29-1.17c-2.34-18-5.31-36.48-7.68-43.43-10.38-30.48,4.06-53.38,4.06-53.38s17,1.94,20.31,3.17c3.75.58,9.51,10.27,11.56,22.41Z" transform="translate(0 0.04)" style="fill:#00cba8"></path><path d="M527.29,439.11s-7.7,13.05-11,15.18c-4.41,2.9-1.64,5.83.45,5.83s12.8.77,15.16-1.91,3.53-10.7,5.72-12.8,4.5-10.41-1-12.41C531.71,431.15,527.29,439.11,527.29,439.11Z" transform="translate(0 0.04)" style="fill:#0096e1"></path><path d="M530.62,433.36s-8.82,15.29-10.34,17.55,2.86,2.26,5.58,1.18,9.55-12,10.53-14a7.37,7.37,0,0,0,.21-5.11Z" transform="translate(0 0.04)" style="fill:#ffa000"></path><polygon points="539.56 441.63 537.52 457.3 536.44 457.35 536.78 446.08 539.56 441.63" style="fill:#0096e1"></polygon><path d="M603.66,439.11s-7.71,13.05-10.95,15.18c-4.42,2.9-1.66,5.83.44,5.83s12.8.77,15.16-1.91,3.53-10.7,5.72-12.8,4.54-10.65-1-12.41C608.05,431.36,603.66,439.11,603.66,439.11Z" transform="translate(0 0.04)" style="fill:#0096e1"></path><path d="M606.53,433.4s-8.36,15.25-9.88,17.51,2.86,2.26,5.58,1.18,9.55-12,10.53-14A7.37,7.37,0,0,0,613,433Z" transform="translate(0 0.04)" style="fill:#ffa000"></path><polygon points="615.93 441.63 613.89 457.3 612.81 457.35 613.15 446.08 615.93 441.63" style="fill:#0096e1"></polygon><path d="M637.82,320.3l-69.69,31.75a13.42,13.42,0,0,0-8.65,11.17c-2.72,27-22.88,69.73-22.88,69.73-6.48,3.16-6,.41-6,.41,4.08-13.09,9-67,10.81-88.72.38-4.6.61-7.74.66-8.75,0-.68.78-1.58,2.07-2.62,9.57-7.76,48.92-23.81,48.92-23.81C622.62,308.71,637.82,320.3,637.82,320.3Z" transform="translate(0 0.04)" style="fill:#ffa000"></path><path d="M651,333.93c-2.16,18.84-29,16.68-29,16.68H589.32s8.56,19.05,11.87,35.12C604.7,402.78,613,433,613,433s-.54,1-6.44.45c0,0-25.58-51-35.38-63.81-2.1-2.76-8.14-17.73-9.18-26.66-.35-3-.13-5.32,1-6.27a83.64,83.64,0,0,1,7.19-4.91c10.21-6.44,27.94-16.35,37.82-18.57,13.22-3,34.15-8.55,34.15-8.55S653.12,315.1,651,333.93Z" transform="translate(0 0.04)" style="fill:#ffa000"></path><path d="M584.28,188.84s-4.88-9.26-2.51-19.13S593.3,150,606.7,154.54s24.23,14.92,16.2,27,7.27,17.47,3.37,23.2-2.42,11.71-.77,13,7,6.08,6.39,11.71-26-16.39-26-16.39S592.06,185.24,584.28,188.84Z" transform="translate(0 0.04)" style="fill:#0045a1"></path><path d="M609.5,219.73c8.49-1.61,6.68-6.33,6.68-6.33s-.39-2.66-.55-6c0-.86-.06-1.77,0-2.7a36.3,36.3,0,0,1,.23-4.17c.7-5.7-15.41-2.3-15.41-2.3s0,14.26-2.19,17.72S601,221.33,609.5,219.73Z" transform="translate(0 0.04)" style="fill:#ffa000"></path><path d="M587.83,165.78s-8.89,17.14-.08,33.37,26.15-7.07,27.27-9.8,7.07-18.2-4.75-22.89S590.35,161.13,587.83,165.78Z" transform="translate(0 0.04)" style="fill:#ffa000"></path><path d="M590.79,171.86s-6.13,8-6.85,14a31.79,31.79,0,0,1,4.45-22c6.89-10.79,24.41-.51,26.76,3.8s9.22,8.11-2.33,26.64C612.82,194.26,592,179.82,590.79,171.86Z" transform="translate(0 0.04)" style="fill:#0045a1"></path><path d="M592.72,350.61h29.19s26.89,2.16,29.05-16.68-8.84-29.3-8.84-29.3-14.21,3.79-26.61,6.78a96.52,96.52,0,0,0-22.43-2s-52.57,17.37-51,26.51C542.09,336,564.08,324.22,592.72,350.61Z" transform="translate(0 0.04)" style="fill:#0096e1"></path><polygon points="611.72 318.03 556.07 317.21 584.17 331.48 611.72 318.03" style="fill:#0045a1"></polygon><path d="M594.43,310.88a47.62,47.62,0,0,0,27.87.47l.72-5.73-31.6,1.75Z" transform="translate(0 0.04)" style="fill:#00cba8"></path><polygon points="584.17 331.48 611.72 320.81 611.72 318.03 581.99 328.76 584.17 331.48" style="fill:#0045a1"></polygon><path d="M594.63,313.53a2.76,2.76,0,0,1-2.54,3,2.73,2.73,0,0,1-1.29-.22l-3.23-1.37a2.31,2.31,0,0,1-1.37-2.49c1.35-8.42,4.23-41.18,0-46.8a20.3,20.3,0,0,1-3.07-5.49c-2.79,7.18-6.26,16.43-7.63,21.4l-26.29,35-8.82,2.24c11-26.51,19.84-40.55,19.84-40.55,1.72-4.62,6.65-18.61,11-31.07,2.76-7.86,5.29-15.12,6.65-19a8.89,8.89,0,0,1,3.85-4.72c4.1-2.41,17.09-9.41,17.27-9.51-.17.55-.35,1.24-.35,1.24-1.58,2.75-.8,1.4-.8,1.4-11.7,17.71-5.56,65-3.25,96.92Z" transform="translate(0 0.04)" style="fill:#00cba8"></path><path d="M606.26,182.85s3.42,5.31.26,9.91.8,9.09,1.48,14-13.18,17.76,2.24,24.26,20.34-4.24,16.4-10.15-6.73-10.71-7.06-19.13S616.47,180.13,606.26,182.85Z" transform="translate(0 0.04)" style="fill:#0045a1"></path><path d="M606,308.26a20.87,20.87,0,0,1-6.55,1.58s-8.59-.48-10.17,1.79a15.11,15.11,0,0,0-1.29,2.15c-3.69,1.56-9.7,4.18-9.88,4.72-.26.77.27,1.27,1.39,1,.89-.24,7.57-2.17,10.3-2.95l.12.21C587,318.3,579,322.55,578.62,323s.7,1.32,1.34,1.2,8.16-3.48,11.57-5l.08.1c-3,1.63-9.59,5.16-9.68,5.62s1.06,1.33,2,.95c.65-.28,6.82-3,10-4.46l.27.18c-2.19,1.41-5.83,3.87-5.58,4.32s1,1.26,2.87,0c1.39-.95,4.55-2.62,6-3.4a4.78,4.78,0,0,0,.83-.2c4.35-1.54,7.29-5.38,8.14-5.53a33.84,33.84,0,0,0,3.25-1Z" transform="translate(0 0.04)" style="fill:#ffa000"></path><path d="M648.47,234s8.91,45.87,8.47,50-47,33.35-47,33.35l-5.4-10.62,35.75-26-7-40.57Z" transform="translate(0 0.04)" style="fill:#00cba8"></path><polygon points="584.17 331.48 567.62 286.29 514.25 287.16 530.03 328.81 584.17 331.48" style="fill:#0045a1"></polygon><path d="M550.54,306.24c1.63,3.26,1.14,6.8-1.1,7.92s-5.36-.62-7-3.87-1.14-6.8,1.1-7.92S548.91,303,550.54,306.24Z" transform="translate(0 0.04)" style="fill:#fff"></path><path d="M271.64,310.59s7.15-8.36,9.18-8.87,4.77-.52,7.39-1.78,5.93-2.11,5.86-2.7-2.86-.83-6-.06-4.34-.08-4.5-.79,2.49-5.09,3.57-6.05,8.5-6.22,7.61-7.34-5.6,1.66-6.39,2.26c0,0,4.46-6.31,3.24-6.86s-4,1.47-4,1.47,1.29-5.83-6.68,2.62c0,0,1.88-2.93-.24-2.21s-5,6.32-6.16,9.21-5.54,11.95-8.3,13.84S271.64,310.59,271.64,310.59Z" transform="translate(0 0.04)" style="fill:#ffa000"></path><path d="M280.82,301.72c2-.5,4.77-.52,7.39-1.78s5.93-2.11,5.86-2.7-2.86-.83-6-.06-4.34-.08-4.5-.79Z" transform="translate(0 0.04)" style="fill:#ffa000"></path><rect x="193.65" y="437.21" width="12.78" height="6.04" transform="translate(-269.13 557.31) rotate(-79.57)" style="fill:#ffa000"></rect><rect x="193.65" y="437.21" width="12.78" height="6.04" transform="translate(-269.13 557.31) rotate(-79.57)" style="fill:#ffa000"></rect><path d="M198.23,433.39,195.91,446a20.72,20.72,0,0,1-6.48,4.3c-4.49,1.84,4.13,2.42,4.13,8.71H182.19c-3.84,0-3.44-3.73-2.5-7.45,1.28-5.09,3-11.72,4.08-16.09a5,5,0,0,1,5.86-3.71Z" transform="translate(0 0.04)" style="fill:#00cba8"></path><rect x="148.46" y="437.21" width="12.78" height="6.04" transform="translate(-306.14 512.87) rotate(-79.57)" style="fill:#ffa000"></rect><rect x="148.46" y="437.21" width="12.78" height="6.04" transform="translate(-306.14 512.87) rotate(-79.57)" style="fill:#ffa000"></rect><path d="M201.85,362a32.63,32.63,0,0,0-8.61,22.52c.38,13.68,6.46,53.18,6.46,53.18l-44.07-4-2,16.52s51,7.77,71.52,8.64c8.34.35,6.67-12.19,5.29-27.2-2-21.9-6.81-49-6.81-49S226.8,356.91,201.85,362Z" transform="translate(0 0.04)" style="fill:#0045a1"></path><path d="M254.63,377.27s22.62,59.85,25.53,67.42.15,16.2-20,14.3-56.71-7.9-56.71-7.9l.54-19.46,41.91,4.79s-43.08-37.78-29.79-62.59C216.12,373.83,232.64,345.78,254.63,377.27Z" transform="translate(0 0.04)" style="fill:#0045a1"></path><path d="M254.63,377.27s22.62,59.85,25.53,67.42.15,16.2-20,14.3-56.71-7.9-56.71-7.9l.54-19.46,41.91,4.79s-43.08-37.78-29.79-62.59C216.12,373.83,232.64,345.78,254.63,377.27Z" transform="translate(0 0.04)" style="fill:#0045a1"></path><path d="M254.63,372.36v4.91s-28.35,3.61-54.93-12.73l3.92-5.65S246.88,372.36,254.63,372.36Z" transform="translate(0 0.04)" style="fill:#0096e1"></path><path d="M281.41,279s4.93-5.32,3.2-23.06c-1.67-17.16-20.63-20.06-28.92-11.24s-7.77,15.61-1.73,29.14S276.57,283.45,281.41,279Z" transform="translate(0 0.04)" style="fill:#ffa000"></path><path d="M275.31,282.19s-2.66,4.24-1.84,7.9-22,2.17-22,2.17,4.05-12.13,2.51-18.39S275.31,282.19,275.31,282.19Z" transform="translate(0 0.04)" style="fill:#ffa000"></path><path d="M254,273.87s2.82.93,9.45.24S273,262.8,274,264.37c2.11,3.23,5.08,2,6.46.74,0,0-2.07-4.65-.24-6.22a14.88,14.88,0,0,1,4.41-2.44s.53-21.81-21.32-16.91C237.73,245.29,254,273.87,254,273.87Z" transform="translate(0 0.04)" style="fill:#0096e1"></path><path d="M276.7,262.22c-.7-2.16-4.61-4.41-6.36.83-1.35,4.07,5.5,10.45,6.48,6.6A12.09,12.09,0,0,0,276.7,262.22Z" transform="translate(0 0.04)" style="fill:#ffa000"></path><path d="M284.61,256s8.1-9.38,8.45-14.62-19.38-6.57-27.43-2.23S284.61,256,284.61,256Z" transform="translate(0 0.04)" style="fill:#0096e1"></path><path d="M344.52,334.66c2.26-3.38,9.87-14.52,13.09-19.33,1.71-2.56-5.33-8.45-7.39-4.54s-17.83,22.68-18.66,23.56l-15.38-13-14.12,15.21s19.24,9.64,25.53,13S342.08,338.31,344.52,334.66Z" transform="translate(0 0.04)" style="fill:#ffa000"></path><path d="M220.21,325.73c3.46-11.21-.16-18.55,8.94-27.32,6.13-5.91,22.44-6.43,22.44-6.46s2.11,2.87,13.3-.51c0,0,13.31,1.78,15.49,1.78,8,0,35,25.47,35,25.47,3.06,4.14-2.84,18.85-9.26,20.86,0,0-13.82-6-20.66-7,0,0-24.23,31.75-28.4,38s-34.51,3.6-55.2-8.59C210,345.33,216.74,336.94,220.21,325.73Z" transform="translate(0 0.04)" style="fill:#00cba8"></path><path d="M348.84,313.07s4.46-6.63,3.45-9.46c-.57-1.61-1.82-5.77-1.87-6.32s-2.12-3.21-1.82-4,3.33-.6,4.77,2.46,2.7,4.11,3.72,4.25,5.43-7,6.32-8.85,3.64-6.57,4.69-5.74.11,3,.11,3,.82-.43,1.44.69-.24,2.92-.24,2.92,1.25-.09,1.08,1.65a5.76,5.76,0,0,1-1.18,2.94s1.3,1.26.44,3.73-1.3,4.35-3.59,6.38-7.66,7.3-9.28,9.66S348.84,313.07,348.84,313.07Z" transform="translate(0 0.04)" style="fill:#ffa000"></path><path d="M274.94,293.15l-.68-4.75s-15.05-.95-23.31-.31l-1,4.74S260.25,297.92,274.94,293.15Z" transform="translate(0 0.04)" style="fill:#00cba8"></path><path d="M351,309.46s5.48,3.05,6.81,5.78a7.71,7.71,0,0,1-1.44,1.78s-4-4.24-6.75-5.72C349.63,311.3,350.31,309.76,351,309.46Z" transform="translate(0 0.04)" style="fill:#0045a1"></path><path d="M356.87,314.78c-.63,1.34-1.92,2.07-2.88,1.62s-1.21-1.9-.58-3.25,1.93-2.07,2.88-1.62S357.5,313.44,356.87,314.78Z" transform="translate(0 0.04)" style="fill:#fff"></path><path d="M153,433.39,150.72,446s-.6,2.68-4.54,4.3c-4.48,1.84,4.14,2.42,4.14,8.71h-8.86c-3.83,0-7.9-3.73-7-7.45,1.28-5.09,3-11.72,4.08-16.09a5,5,0,0,1,5.86-3.71Z" transform="translate(0 0.04)" style="fill:#00cba8"></path><path d="M283.55,294c-.16-.72,2.49-2.74,3.57-3.7s8.5-6.22,7.61-7.34-5.6,1.66-6.39,2.26l-5.15,3v5.64Z" transform="translate(0 0.04)" style="fill:#ffa000"></path></svg> 